<svg width="89" height="89" viewBox="0 0 89 89" fill="none" xmlns="http://www.w3.org/2000/svg">
<path d="M5.5625 5.5625H83.4375V83.4375H5.5625V5.5625Z" fill="#F5DE19"/>
<path d="M57.8751 66.4023C58.5396 67.7493 59.5708 68.8814 60.8499 69.6685C62.1291 70.4557 63.6044 70.866 65.1063 70.8523C68.1379 70.8523 70.0764 69.3365 70.0764 67.2367C70.0764 64.7336 68.085 63.838 64.7475 62.3778L62.9175 61.5935C57.6331 59.3435 54.1287 56.5261 54.1287 50.5686C54.1287 45.0812 58.3006 40.901 64.8449 40.901C66.9633 40.7484 69.0798 41.2227 70.9305 42.2648C72.7812 43.3069 74.2843 44.8706 75.2523 46.7611L69.5313 50.4185C69.1583 49.4812 68.5094 48.6793 67.6706 48.1191C66.8317 47.5588 65.8424 47.2666 64.8338 47.2812C64.3937 47.2371 63.9492 47.2853 63.5287 47.4225C63.1082 47.5597 62.7209 47.7829 62.3915 48.0781C62.0621 48.3732 61.7978 48.7338 61.6154 49.1367C61.433 49.5397 61.3365 49.9762 61.3322 50.4185C61.3322 52.6129 62.6922 53.5029 65.8322 54.8685L67.6623 55.6528C73.8812 58.32 77.3967 61.0373 77.3967 67.1477C77.3967 73.7365 72.2208 77.3465 65.2704 77.3465C62.5626 77.5173 59.8631 76.9017 57.4971 75.5739C55.131 74.246 53.1992 72.2625 51.9343 69.8622L57.8751 66.4023ZM32.0234 67.0364C33.172 69.0751 34.2178 70.7995 36.732 70.7995C39.135 70.7995 40.6536 69.8594 40.6536 66.2021V41.3182H47.971V66.2994C47.971 73.8755 43.521 77.3243 37.0435 77.3243C34.7539 77.4494 32.4799 76.8788 30.5206 75.6875C28.5613 74.4961 27.0084 72.7397 26.0659 70.6493L32.0234 67.0364Z" fill="black"/>
</svg>
