<svg width="91" height="91" viewBox="0 0 91 91" fill="none" xmlns="http://www.w3.org/2000/svg">
<path d="M77.0342 44.8915C77.0342 42.926 76.2534 41.0411 74.8636 39.6513C73.4738 38.2615 71.5888 37.4807 69.6234 37.4807C69.358 37.4807 69.0982 37.494 68.8442 37.5205L79.0248 7.49902H35.7657L45.9293 37.4949C45.7814 37.4949 45.6307 37.4807 45.4799 37.4807C43.7125 37.4823 42.0037 38.1154 40.6618 39.2658C39.3199 40.4161 38.4332 42.008 38.1614 43.7545C37.8897 45.501 38.2508 47.287 39.1797 48.7907C40.1087 50.2944 41.5443 51.4167 43.2277 51.9554C41.6507 54.6692 39.6879 57.1397 37.4008 59.2894C34.4258 62.1381 30.8884 64.3339 27.0155 65.7362C24.8462 64.7074 23.1497 62.8916 22.2703 60.6576C21.3909 58.4235 21.3946 55.9386 22.2806 53.7071C22.5005 53.1952 22.7186 52.6796 22.9347 52.1601C24.5879 51.7711 26.0574 50.8265 27.0978 49.4841C28.1382 48.1417 28.6863 46.483 28.6507 44.785C28.615 43.0871 27.9976 41.4528 26.9018 40.1553C25.8059 38.8578 24.298 37.9758 22.6299 37.6565C20.9619 37.3373 19.2348 37.6002 17.7373 38.4013C16.2398 39.2025 15.0626 40.4933 14.4025 42.0581C13.7424 43.6229 13.6393 45.3668 14.1105 46.9985C14.5816 48.6301 15.5986 50.0506 16.9913 51.0226C14.6216 55.3109 12.8161 59.8874 11.6194 64.6385C10.6127 70.7099 11.6194 77.151 16.8661 80.7938C29.0943 89.271 42.3717 75.5386 56.3687 72.0891C61.4419 70.8379 67.01 71.0398 71.4775 68.4491C73.0928 67.5314 74.4857 66.2685 75.5568 64.7506C76.6279 63.2327 77.3508 61.4971 77.674 59.6676C77.9707 57.9254 77.9144 56.1414 77.5085 54.4214C77.1026 52.7014 76.3552 51.0804 75.3109 49.6548C76.4257 48.3224 77.0358 46.6401 77.0342 44.9029V44.8915ZM52.8936 44.9313V44.9057C52.8957 43.6304 52.5679 42.3762 51.9421 41.265C51.3162 40.1538 50.4136 39.2234 49.3218 38.5641L57.4095 22.1813L65.5142 38.7149C64.4974 39.3905 63.6638 40.3074 63.0877 41.3837C62.5116 42.46 62.2109 43.6622 62.2126 44.883V45.0451L52.8936 44.9313Z" fill="#99425B"/>
<path d="M78.8456 44.8914C78.8411 42.7431 78.0883 40.6634 76.7166 39.0099C75.345 37.3565 73.4401 36.2325 71.3296 35.8313L81.55 5.6875H33.2404L43.4779 35.891C41.6898 36.2892 40.0609 37.211 38.7989 38.539C37.537 39.8669 36.6992 41.5406 36.3926 43.3467C36.0859 45.1527 36.3243 47.0092 37.0772 48.6792C37.8301 50.3492 39.0635 51.757 40.6199 52.7231C39.3313 54.6318 37.8359 56.3923 36.1609 57.9727C33.5657 60.4583 30.5142 62.4186 27.1747 63.7455C25.6089 62.8342 24.4222 61.3912 23.8304 59.6789C23.2386 57.9666 23.281 56.0988 23.9498 54.4152L24.0636 54.1507L24.274 53.653C26.1685 52.9958 27.7972 51.7392 28.9136 50.0735C30.03 48.4078 30.5733 46.4237 30.4612 44.4216C30.349 42.4195 29.5876 40.5085 28.2922 38.9779C26.9968 37.4472 25.2379 36.3804 23.2819 35.9388C21.3259 35.4972 19.2793 35.705 17.4519 36.5307C15.6246 37.3564 14.116 38.7549 13.1547 40.5147C12.1933 42.2744 11.8315 44.2995 12.124 46.2833C12.4166 48.2671 13.3475 50.1015 14.7759 51.5088C14.4669 52.1648 14.1455 52.834 13.8119 53.5165C11.9681 56.9066 10.627 60.5468 9.83062 64.3228C8.50828 72.2853 10.6411 78.6638 15.8338 82.2612C18.6252 84.2576 21.974 85.3251 25.4058 85.3125C31.4687 85.3125 37.6027 82.2668 43.6058 79.2866C47.7996 77.0051 52.2249 75.1776 56.8065 73.8351C58.4963 73.4462 60.2048 73.1435 61.9253 72.928C65.5681 72.6348 69.1203 71.6423 72.3874 70.0046C74.2301 68.9521 75.8187 67.5073 77.0409 65.7725C78.2631 64.0378 79.0889 62.0555 79.4598 59.9662C80.0636 56.4168 79.3669 52.7688 77.4977 49.6917C78.3861 48.2486 78.8511 46.5861 78.8456 44.8914ZM75.2255 44.8914C75.2255 45.9994 74.8969 47.0826 74.2814 48.0038C73.6658 48.9251 72.7908 49.6432 71.7672 50.0672C70.7435 50.4912 69.6171 50.6021 68.5304 50.386C67.4437 50.1698 66.4454 49.6363 65.662 48.8528C64.8785 48.0693 64.3449 47.0711 64.1288 45.9844C63.9126 44.8977 64.0235 43.7712 64.4476 42.7476C64.8716 41.7239 65.5896 40.849 66.5109 40.2334C67.4322 39.6178 68.5153 39.2892 69.6233 39.2892C71.1084 39.2915 72.532 39.8825 73.5822 40.9326C74.6323 41.9827 75.2232 43.4063 75.2255 44.8914ZM76.4966 9.30759L67.4706 35.9251C67.0836 36.0169 66.7035 36.1357 66.3331 36.2806L57.4179 18.0806L48.4743 36.1725C48.0855 36.0358 47.6873 35.9275 47.2828 35.8483L38.288 9.30759H76.4966ZM45.4799 39.2892C46.5879 39.2892 47.671 39.6178 48.5923 40.2334C49.5136 40.849 50.2316 41.7239 50.6556 42.7476C51.0796 43.7712 51.1906 44.8977 50.9744 45.9844C50.7582 47.0711 50.2247 48.0693 49.4412 48.8528C48.6577 49.6363 47.6595 50.1698 46.5728 50.386C45.4861 50.6021 44.3597 50.4912 43.336 50.0672C42.3123 49.6432 41.4374 48.9251 40.8218 48.0038C40.2062 47.0826 39.8777 45.9994 39.8777 44.8914C39.8777 43.4056 40.4679 41.9807 41.5185 40.9301C42.5691 39.8795 43.9941 39.2892 45.4799 39.2892ZM21.2426 39.3433C22.3506 39.3433 23.4337 39.6718 24.355 40.2874C25.2763 40.903 25.9943 41.7779 26.4183 42.8016C26.8424 43.8253 26.9533 44.9517 26.7371 46.0384C26.521 47.1251 25.9874 48.1233 25.2039 48.9068C24.4205 49.6903 23.4222 50.2238 22.3355 50.44C21.2488 50.6562 20.1224 50.5452 19.0987 50.1212C18.0751 49.6972 17.2001 48.9792 16.5845 48.0579C15.969 47.1366 15.6404 46.0535 15.6404 44.9455C15.6404 43.4602 16.2302 42.0357 17.2802 40.9851C18.3302 39.9346 19.7573 39.344 21.2426 39.3433ZM75.8909 59.3462C75.6098 60.9138 74.9875 62.4004 74.0681 63.7007C73.1486 65.001 71.9545 66.0832 70.5703 66.8708C67.6985 68.2662 64.5887 69.1057 61.4049 69.3448C59.6076 69.6036 57.7507 69.8709 55.9335 70.3203C51.0962 71.7213 46.4243 73.6406 41.9991 76.0447C33.0015 80.5122 25.221 84.3712 17.9069 79.2951C12.5407 75.5755 12.7881 68.6936 13.4137 64.9228C14.1499 61.4899 15.3788 58.1815 17.0623 55.1005L17.8301 53.5108C18.5948 53.8135 19.3961 54.0143 20.2132 54.108C19.4864 56.6644 19.6873 59.3955 20.7802 61.8181C21.8731 64.2407 23.7876 66.1987 26.185 67.3457L26.8817 67.704L27.6183 67.4395C31.7287 65.9592 35.4834 63.6343 38.6407 60.6145C40.7285 58.653 42.561 56.4364 44.095 54.017C46.0603 54.316 48.0697 53.9714 49.8232 53.0348C51.5767 52.0982 52.9804 50.6197 53.8248 48.8199C54.6692 47.0202 54.909 44.9956 54.5085 43.0484C54.108 41.1012 53.0886 39.3357 51.6025 38.0153L57.398 26.2962L63.2533 38.2399C61.5873 39.8455 60.5864 42.019 60.4494 44.3287C60.3124 46.6383 61.0494 48.915 62.5139 50.7062C63.9784 52.4974 66.0632 53.6721 68.3541 53.9968C70.6449 54.3215 72.974 53.7724 74.8786 52.4587C75.9353 54.5889 76.2888 56.9995 75.8881 59.3434L75.8909 59.3462Z" fill="white"/>
</svg>
