<svg width="43" height="43" viewBox="0 0 43 43" fill="none" xmlns="http://www.w3.org/2000/svg">
<path d="M2.6875 2.6875H40.3125V40.3125H2.6875V2.6875Z" fill="#F5DE19"/>
<path d="M27.9622 32.082C28.2833 32.7328 28.7815 33.2798 29.3995 33.6601C30.0175 34.0404 30.7303 34.2387 31.456 34.232C32.9207 34.232 33.8572 33.4997 33.8572 32.4852C33.8572 31.2758 32.8951 30.8431 31.2826 30.1376L30.3984 29.7587C27.8453 28.6716 26.1522 27.3104 26.1522 24.4321C26.1522 21.7809 28.1678 19.7612 31.3297 19.7612C32.3532 19.6875 33.3757 19.9166 34.2699 20.4201C35.1641 20.9236 35.8903 21.6791 36.358 22.5925L33.5939 24.3595C33.4137 23.9067 33.1002 23.5193 32.6949 23.2486C32.2896 22.9779 31.8116 22.8367 31.3243 22.8438C31.1116 22.8225 30.8969 22.8457 30.6938 22.912C30.4906 22.9783 30.3035 23.0862 30.1443 23.2288C29.9852 23.3714 29.8575 23.5456 29.7693 23.7402C29.6812 23.9349 29.6346 24.1458 29.6325 24.3595C29.6325 25.4197 30.2896 25.8497 31.8067 26.5095L32.6909 26.8884C35.6955 28.1771 37.394 29.4899 37.394 32.4422C37.394 35.6255 34.8933 37.3697 31.5353 37.3697C30.227 37.4522 28.9227 37.1548 27.7796 36.5132C26.6364 35.8717 25.7031 34.9134 25.092 33.7537L27.9622 32.082ZM15.4721 32.3884C16.027 33.3734 16.5323 34.2065 17.747 34.2065C18.908 34.2065 19.6417 33.7523 19.6417 31.9853V19.9628H23.1771V32.0323C23.1771 35.6927 21.0271 37.3589 17.8975 37.3589C16.7913 37.4194 15.6926 37.1437 14.746 36.5681C13.7994 35.9925 13.0491 35.1439 12.5938 34.1339L15.4721 32.3884Z" fill="black"/>
</svg>
