<svg width="99" height="99" viewBox="0 0 99 99" fill="none" xmlns="http://www.w3.org/2000/svg">
<path d="M83.549 12.375H47.8022C47.8022 21.285 55.0138 28.4996 63.9261 28.4996H70.5003V34.8619C70.5003 43.7719 77.7149 50.9865 86.6249 50.9865V15.451C86.6243 14.6354 86.3001 13.8533 85.7233 13.2766C85.1466 12.6999 84.3646 12.3756 83.549 12.375Z" fill="#2684FF"/>
<path d="M65.8359 30.1951H30.0884C30.0884 39.1043 37.3007 46.319 46.2099 46.319H52.7872V52.6813C52.7872 61.5913 60.0018 68.8059 68.9118 68.8059V33.2703C68.9106 32.4549 68.5862 31.6732 68.0096 31.0966C67.433 30.52 66.6513 30.1963 65.8359 30.1951Z" fill="url(#paint0_linear_136_127)"/>
<path d="M48.1225 48.0134H12.375C12.375 56.9265 19.5865 64.1381 28.4996 64.1381H35.0738V70.5034C35.0738 79.4134 42.2885 86.625 51.1977 86.625V51.0925C51.1969 50.2769 50.8727 49.4948 50.2963 48.9178C49.7198 48.3408 48.9381 48.0151 48.1225 48.0134Z" fill="url(#paint1_linear_136_127)"/>
<defs>
<linearGradient id="paint0_linear_136_127" x1="68.1678" y1="30.2353" x2="52.9589" y2="45.9175" gradientUnits="userSpaceOnUse">
<stop offset="0.176" stop-color="#0052CC"/>
<stop offset="1" stop-color="#2684FF"/>
</linearGradient>
<linearGradient id="paint1_linear_136_127" x1="51.4831" y1="48.1511" x2="33.8982" y2="65.2595" gradientUnits="userSpaceOnUse">
<stop offset="0.176" stop-color="#0052CC"/>
<stop offset="1" stop-color="#2684FF"/>
</linearGradient>
</defs>
</svg>
