<svg width="87" height="87" viewBox="0 0 87 87" fill="none" xmlns="http://www.w3.org/2000/svg">
<path d="M8.49609 0H78.5039C83.2107 0 87 3.78926 87 8.49609V78.5039C87 83.2107 83.2107 87 78.5039 87H8.49609C3.78926 87 0 83.2107 0 78.5039V8.49609C0 3.78926 3.78926 0 8.49609 0Z" fill="url(#paint0_linear_136_128)"/>
<path d="M53.2332 11.3101H71.6119C73.8712 11.3101 75.6901 13.1289 75.6901 15.3882V45.2944C75.6901 47.5537 73.8712 49.3726 71.6119 49.3726H53.2332C50.9739 49.3726 49.1551 47.5537 49.1551 45.2944V15.3882C49.1551 13.1289 50.9739 11.3101 53.2332 11.3101ZM15.3882 11.3101H33.7669C36.0262 11.3101 37.8451 13.1289 37.8451 15.3882V67.0444C37.8451 69.3037 36.0262 71.1226 33.7669 71.1226H15.3882C13.1289 71.1226 11.3101 69.3037 11.3101 67.0444V15.3882C11.3101 13.1289 13.1289 11.3101 15.3882 11.3101Z" fill="white"/>
<defs>
<linearGradient id="paint0_linear_136_128" x1="43.5" y1="0" x2="43.5" y2="87" gradientUnits="userSpaceOnUse">
<stop stop-color="#2684FF"/>
<stop offset="1" stop-color="#0052CC"/>
</linearGradient>
</defs>
</svg>
