<svg width="43" height="60" viewBox="0 0 43 60" fill="none" xmlns="http://www.w3.org/2000/svg">
<path d="M42.4763 11.7621L38.6134 55.0368L21.2493 59.8506L3.93314 55.0434L0.0742188 11.7621H42.4763Z" fill="#E44D26"/>
<path d="M21.2754 56.171L35.3064 52.2812L38.6074 15.3009H21.2754V56.171Z" fill="#F16529"/>
<path d="M13.7651 25.9177H21.2745V20.6094H7.96387L8.09085 22.0335L9.39561 36.6617H21.2745V31.3534H14.2503L13.7651 25.9177ZM14.9615 39.3159H9.63279L10.3764 47.6507L21.2501 50.6691L21.2745 50.6625V45.1396L21.2513 45.1458L15.3395 43.5495L14.9615 39.3159Z" fill="#EBEBEB"/>
<path d="M4.01855 0H6.71616V2.66519H9.18389V0H11.8817V8.07087H9.18406V5.36828H6.71632V8.07087H4.01872L4.01855 0ZM15.4289 2.67649H13.0544V0H20.503V2.67649H18.127V8.07087H15.4294V2.67649H15.4289ZM21.6851 0H24.4979L26.2282 2.83589L27.9568 0H30.7707V8.07087H28.0841V4.07051L26.2282 6.94014H26.1816L24.3245 4.07051V8.07087H21.6851V0ZM32.1132 0H34.8116V5.40318H38.6052V8.07087H32.113L32.1132 0Z" fill="black"/>
<path d="M21.257 36.6617H27.7936L27.1773 43.5462L21.2568 45.1441V50.6666L32.1392 47.6507L32.2189 46.7539L33.4665 32.7788L33.596 31.3534H21.257V36.6617ZM21.257 25.9047V25.9177H34.079L34.1854 24.7246L34.4274 22.0335L34.5542 20.6094H21.257V25.9047Z" fill="white"/>
</svg>
