<svg width="43" height="43" viewBox="0 0 43 43" fill="none" xmlns="http://www.w3.org/2000/svg">
<path d="M21.501 8.60071C15.7675 8.60071 12.1854 11.4663 10.751 17.1997C12.9003 14.3338 15.4094 13.2592 18.2753 13.9757C19.9117 14.3835 21.0811 15.5701 22.3761 16.8849C24.4838 19.0238 26.9233 21.5 32.251 21.5C37.9841 21.5 41.5665 18.6342 43.001 12.8994C40.851 15.7667 38.3428 16.8419 35.4763 16.125C33.8403 15.7169 32.6722 14.5307 31.3755 13.2158C29.2692 11.0769 26.8303 8.60071 21.501 8.60071ZM10.751 21.5C5.01787 21.5 1.43543 24.3659 0.000976562 30.1007C2.15075 27.2334 4.65886 26.1581 7.5253 26.875C9.16166 27.2832 10.3311 28.4694 11.6261 29.7843C13.7338 31.9232 16.1733 34.3994 21.501 34.3994C27.2341 34.3994 30.8165 31.5338 32.251 25.8004C30.101 28.6664 27.5928 29.741 24.7263 29.0244C23.0903 28.6165 21.9222 27.43 20.6255 26.1151C18.5192 23.9762 16.0803 21.5 10.751 21.5Z" fill="#38BDF8"/>
</svg>
