<svg width="117" height="94" viewBox="0 0 117 94" fill="none" xmlns="http://www.w3.org/2000/svg">
<path d="M104.489 40.5771C104.442 40.5771 104.396 40.5884 104.357 40.6095L102.212 41.6156C102.172 41.6356 102.139 41.6638 102.116 41.6973C102.093 41.7307 102.082 41.7684 102.083 41.8065V43.8187C102.083 43.9039 102.133 43.9685 102.212 44.0111L104.357 45.0157C104.396 45.0369 104.442 45.0482 104.489 45.0482C104.536 45.0482 104.583 45.0369 104.622 45.0157L106.763 44.0111C106.803 43.9906 106.837 43.9621 106.86 43.9283C106.883 43.8945 106.895 43.8565 106.895 43.8179V41.808C106.896 41.7696 106.884 41.7318 106.86 41.6984C106.837 41.6649 106.803 41.6368 106.763 41.617L104.621 40.6102C104.582 40.5892 104.536 40.5773 104.489 40.5771ZM57.7871 52.6091C57.3968 52.6091 57.0083 52.6855 56.6774 52.8353L46.1209 57.7755C45.7827 57.9351 45.5023 58.1631 45.3076 58.4367C45.1129 58.7103 45.0108 59.0201 45.0112 59.3353V69.1928C45.0112 69.8347 45.4335 70.4339 46.1209 70.7556L48.8997 72.0378C50.2488 72.5724 50.725 72.5709 51.3329 72.5709C53.3164 72.5709 54.4544 71.5876 54.4544 69.8978V60.171C54.4533 60.1033 54.4194 60.0386 54.3601 59.9905C54.3008 59.9425 54.2206 59.9148 54.1363 59.9132H52.789C52.7044 59.9144 52.6237 59.9419 52.564 59.99C52.5043 60.0382 52.4702 60.1031 52.4691 60.171V69.9C52.4691 70.6483 51.4919 71.3981 49.9316 70.757L47.0478 69.4094C46.9417 69.3669 46.8878 69.2582 46.8878 69.173V59.3133C46.8878 59.2281 46.9417 59.1223 47.0478 59.079L57.6006 54.1609C57.6801 54.1183 57.8136 54.1183 57.9196 54.1609L68.4752 59.079C68.5803 59.1223 68.6324 59.2068 68.6324 59.314V69.1722C68.6324 69.2787 68.5803 69.3661 68.4752 69.4087L57.9196 74.3489C57.8401 74.3914 57.7066 74.3914 57.6006 74.3489L54.9032 73.0424C54.8237 72.9998 54.7177 72.9785 54.6381 73.0211C53.8977 73.3633 53.768 73.4081 53.0532 73.6005C52.8941 73.6431 52.6299 73.7276 53.1583 73.9626L56.6774 75.6531C57.0211 75.8022 57.3904 75.8874 57.7871 75.8874C58.1838 75.8874 58.5796 75.8029 58.8968 75.6964L69.4533 70.7563C69.792 70.5964 70.0728 70.368 70.2675 70.0938C70.4622 69.8196 70.564 69.5092 70.5629 69.1935V59.3353C70.5629 58.6934 70.1406 58.0964 69.4533 57.7755L58.8968 52.8353C58.5567 52.6855 58.1749 52.6077 57.7871 52.6091ZM74.2676 57.1109C73.7259 57.1126 73.2072 57.2871 72.8255 57.596C72.4438 57.9048 72.2303 58.3228 72.232 58.7581C72.2306 59.1932 72.4441 59.611 72.8258 59.9197C73.2075 60.2284 73.726 60.4028 74.2676 60.4045C75.38 60.4045 76.3042 59.6562 76.3042 58.7581C76.3013 58.3239 76.0862 57.908 75.7053 57.6C75.3243 57.292 74.808 57.1159 74.2676 57.1109ZM74.2402 57.3892C74.4655 57.387 74.6892 57.4207 74.8981 57.4886C75.1071 57.5564 75.2972 57.6569 75.4573 57.7843C75.6175 57.9117 75.7445 58.0633 75.831 58.2305C75.9176 58.3977 75.9619 58.577 75.9614 58.7581C75.9614 59.5071 75.1936 60.149 74.2411 60.149C73.3161 60.149 72.5483 59.5277 72.5483 58.7581C72.5483 57.9884 73.3417 57.3892 74.2402 57.3892ZM73.5007 57.8379V59.7194H73.9523V58.9732H74.349C74.508 58.9732 74.5601 59.0158 74.5866 59.1223C74.5866 59.1444 74.6652 59.6144 74.6652 59.6995H75.1406C75.0875 59.6144 75.061 59.3573 75.0345 59.2075C75.0089 58.9725 74.9833 58.8014 74.6652 58.7801C74.8243 58.7368 75.0885 58.6729 75.0885 58.3307C75.0885 57.8386 74.5583 57.8386 74.295 57.8386L73.5007 57.8379ZM73.8983 58.1375H74.2676C74.4011 58.1375 74.6113 58.1375 74.6113 58.3938C74.6113 58.479 74.5601 58.6516 74.2676 58.6516H73.8974L73.8983 58.1375ZM60.6719 59.6136C57.6555 59.6136 55.8566 60.6403 55.8566 62.3727C55.8566 64.2336 57.6555 64.7447 60.5393 64.9804C64.0036 65.2588 64.2687 65.6656 64.2687 66.2215C64.2687 67.1836 63.3144 67.5904 61.0923 67.5904C58.288 67.5904 57.6801 67.0337 57.4681 65.9006C57.4681 65.7721 57.3383 65.6876 57.1792 65.6876H55.8036C55.7195 65.6884 55.6392 65.7157 55.58 65.7637C55.5208 65.8116 55.4875 65.8764 55.4873 65.9439C55.4873 67.398 56.4388 69.1091 61.0695 69.1091C64.4012 69.1091 66.3327 68.0384 66.3327 66.1569C66.3327 64.3173 64.797 63.826 61.5448 63.4838C58.2633 63.1416 57.9205 62.9491 57.9205 62.3293C57.9205 61.816 58.2112 61.1323 60.6444 61.1323C62.8135 61.1323 63.6325 61.5179 63.9506 62.6936C63.9666 62.7466 64.0037 62.794 64.0564 62.8285C64.109 62.863 64.1743 62.8827 64.2422 62.8845H65.6435C65.7239 62.8845 65.8034 62.8427 65.8573 62.8001C65.9053 62.7428 65.9322 62.6759 65.935 62.6069C65.7239 60.5544 64.0585 59.6136 60.6719 59.6136Z" fill="#5FA04E"/>
<path d="M78.6752 18.1126C78.5627 18.1113 78.4517 18.1338 78.3535 18.178C78.2514 18.2261 78.1663 18.2944 78.1063 18.3764C78.0463 18.4584 78.0134 18.5514 78.0107 18.6465V32.5475C78.0107 32.6753 77.9284 32.8045 77.7703 32.8897C77.6972 32.9212 77.6156 32.9377 77.5327 32.9377C77.4497 32.9377 77.3681 32.9212 77.295 32.8897L74.4925 31.5862C74.2868 31.4918 74.0539 31.4421 73.817 31.4421C73.5801 31.4421 73.3472 31.4918 73.1415 31.5862L61.9278 36.8259C61.7203 36.92 61.5474 37.0563 61.4265 37.2213C61.3056 37.3862 61.2411 37.5738 61.2395 37.7652V48.2227C61.2395 48.6075 61.5046 48.9718 61.9278 49.1642L73.1433 54.4039C73.349 54.4982 73.5816 54.5478 73.8184 54.5478C74.0551 54.5478 74.2878 54.4982 74.4934 54.4039L85.708 49.1642C86.1312 48.9718 86.3963 48.6075 86.3963 48.2227V22.1546C86.3963 21.7485 86.1312 21.3835 85.708 21.1918L79.0171 18.178C78.9112 18.1353 78.7936 18.113 78.6752 18.1126ZM12.5108 31.1595C12.2997 31.1595 12.0885 31.2212 11.9039 31.3064L0.688341 36.5271C0.477554 36.6234 0.302621 36.7633 0.181618 36.9321C0.0606165 37.101 -0.00206478 37.2928 5.18851e-05 37.4876L0.0274738 51.5157C0.0274738 51.7088 0.158185 51.9012 0.370247 51.9871C0.468556 52.0389 0.583566 52.0665 0.701138 52.0665C0.81871 52.0665 0.933719 52.0389 1.03203 51.9871L7.6992 48.9079C8.12241 48.7155 8.38475 48.3512 8.38475 47.9664V41.4011C8.38475 41.0163 8.64983 40.652 9.07395 40.4596L11.9039 39.1341C12.115 39.0269 12.3545 38.9843 12.5922 38.9843C12.8298 38.9843 13.0684 39.0269 13.254 39.1341L16.0839 40.4596C16.5071 40.652 16.7722 41.0163 16.7722 41.4011V47.9664C16.7722 48.3512 17.0354 48.7155 17.4577 48.9079L24.0719 51.9871C24.1747 52.0398 24.2941 52.0678 24.416 52.0678C24.538 52.0678 24.6574 52.0398 24.7602 51.9871C24.8655 51.9411 24.9531 51.8729 25.0137 51.7898C25.0743 51.7067 25.1054 51.6119 25.1039 51.5157V37.4876C25.1039 37.1028 24.8388 36.7386 24.4147 36.5454L13.2265 31.3064C13.0381 31.226 12.8319 31.1759 12.6196 31.1588L12.5108 31.1595ZM104.527 31.3137C104.295 31.3137 104.066 31.3622 103.854 31.4591L92.6366 36.696C92.2134 36.8884 91.9511 37.2526 91.9511 37.6382V48.0957C91.9511 48.4805 92.2134 48.8447 92.6366 49.0371L103.774 54.1682C103.974 54.2627 104.202 54.3125 104.435 54.3125C104.667 54.3125 104.896 54.2627 105.096 54.1682L111.842 51.133C111.947 51.0869 112.035 51.0187 112.095 50.9356C112.155 50.8525 112.186 50.7578 112.185 50.6616C112.186 50.5656 112.155 50.4712 112.095 50.3884C112.034 50.3056 111.947 50.2375 111.842 50.1916L100.574 44.9511C100.472 44.9027 100.387 44.8341 100.327 44.7516C100.267 44.6692 100.234 44.5758 100.232 44.4803V41.208C100.23 41.112 100.261 41.0176 100.322 40.9348C100.382 40.852 100.47 40.7839 100.574 40.738L104.093 39.1121C104.196 39.0594 104.316 39.0314 104.438 39.0314C104.56 39.0314 104.679 39.0594 104.782 39.1121L108.297 40.7372C108.4 40.7853 108.486 40.8539 108.547 40.9363C108.607 41.0187 108.64 41.1123 108.643 41.208V43.7746C108.643 43.9677 108.774 44.1602 108.986 44.2453C109.088 44.2982 109.208 44.3263 109.33 44.3263C109.452 44.3263 109.572 44.2982 109.675 44.2453L116.339 41.1022C116.544 41.0064 116.713 40.8687 116.829 40.7031C116.945 40.5375 117.005 40.3501 117.001 40.16V37.6154C117.001 37.2306 116.736 36.8685 116.339 36.6754L105.202 31.4584C104.997 31.364 104.764 31.3139 104.528 31.313L104.527 31.3137ZM73.817 39.1231C73.8764 39.1231 73.9367 39.1341 73.9907 39.1561L77.8242 40.9524C77.9303 40.995 77.9842 41.1007 77.9842 41.1867V44.7792C77.9842 44.8864 77.9303 44.9731 77.8242 45.0157L73.9898 46.812C73.936 46.8331 73.8769 46.8441 73.817 46.8441C73.7571 46.8441 73.698 46.8331 73.6442 46.812L69.8097 45.0157C69.7037 44.9731 69.6498 44.8652 69.6498 44.7792V41.1867C69.6498 41.0794 69.7046 40.995 69.8097 40.9517L73.6442 39.1561C73.6978 39.1337 73.7566 39.1224 73.817 39.1231Z" fill="#333333"/>
<path d="M43.8584 31.4995C43.6532 31.4047 43.4206 31.3547 43.1839 31.3547C42.9471 31.3547 42.7145 31.4047 42.5093 31.4995L31.3724 36.6967C31.1683 36.7924 30.9994 36.9299 30.8832 37.0952C30.7669 37.2604 30.7073 37.4476 30.7106 37.6374V48.0516C30.7106 48.4371 30.9757 48.8006 31.3724 48.993L42.5093 54.1895C42.7145 54.2843 42.9471 54.3343 43.1839 54.3343C43.4206 54.3343 43.6532 54.2843 43.8584 54.1895L54.9945 48.993C55.4177 48.8006 55.6563 48.4371 55.6563 48.0516V37.6374C55.6563 37.2526 55.3912 36.8883 54.9945 36.6967L43.8584 31.4995Z" fill="url(#paint0_linear_136_117)"/>
<path d="M55.0211 36.6967L43.832 31.4996C43.7222 31.4549 43.6071 31.4192 43.4883 31.3931L30.9492 48.7361C31.0552 48.8433 31.1869 48.9285 31.3194 48.9931L42.5094 54.1895C42.8265 54.3393 43.1967 54.3819 43.5404 54.296L55.3126 36.8891C55.2353 36.8077 55.1355 36.7418 55.0211 36.6967Z" fill="url(#paint1_linear_136_117)"/>
<path d="M55.0212 48.9924C55.3393 48.8426 55.5769 48.5863 55.683 48.3079L43.4345 31.371C43.1183 31.3285 42.7737 31.3498 42.483 31.4996L31.3726 36.6747L43.3559 54.3386C43.5141 54.3173 43.6996 54.2747 43.8587 54.2101L55.0212 48.9924Z" fill="url(#paint2_linear_136_117)"/>
<defs>
<linearGradient id="paint0_linear_136_117" x1="47.7189" y1="35.3694" x2="40.6645" y2="53.1703" gradientUnits="userSpaceOnUse">
<stop stop-color="#3F873F"/>
<stop offset="0.33" stop-color="#3F8B3D"/>
<stop offset="0.637" stop-color="#3E9638"/>
<stop offset="0.934" stop-color="#3DA92E"/>
<stop offset="1" stop-color="#3DAE2B"/>
</linearGradient>
<linearGradient id="paint1_linear_136_117" x1="41.4916" y1="44.0607" x2="65.2899" y2="22.3094" gradientUnits="userSpaceOnUse">
<stop offset="0.138" stop-color="#3F873F"/>
<stop offset="0.402" stop-color="#52A044"/>
<stop offset="0.713" stop-color="#64B749"/>
<stop offset="0.908" stop-color="#6ABF4B"/>
</linearGradient>
<linearGradient id="paint2_linear_136_117" x1="30.3034" y1="42.841" x2="56.073" y2="42.841" gradientUnits="userSpaceOnUse">
<stop offset="0.092" stop-color="#6ABF4B"/>
<stop offset="0.287" stop-color="#64B749"/>
<stop offset="0.598" stop-color="#52A044"/>
<stop offset="0.862" stop-color="#3F873F"/>
</linearGradient>
</defs>
</svg>
