<svg width="60" height="60" viewBox="0 0 60 60" fill="none" xmlns="http://www.w3.org/2000/svg">
<path d="M53.5846 25.9003C53.5604 25.9002 53.5367 25.9074 53.5166 25.9209L52.4169 26.5631C52.3962 26.5759 52.3792 26.5939 52.3675 26.6152C52.3559 26.6366 52.3499 26.6606 52.3504 26.685V27.9693C52.3504 28.0237 52.3761 28.065 52.4169 28.0921L53.5166 28.7334C53.5367 28.7469 53.5604 28.7541 53.5846 28.7541C53.6088 28.7541 53.6324 28.7469 53.6525 28.7334L54.7504 28.0921C54.7712 28.079 54.7884 28.0608 54.8003 28.0393C54.8122 28.0177 54.8184 27.9935 54.8183 27.9689V26.6859C54.8186 26.6614 54.8124 26.6373 54.8005 26.6159C54.7886 26.5946 54.7713 26.5767 54.7504 26.564L53.6521 25.9214C53.6321 25.908 53.6086 25.9003 53.5846 25.9003ZM29.6347 33.5803C29.4346 33.5803 29.2354 33.629 29.0657 33.7246L23.6521 36.8779C23.4786 36.9798 23.3348 37.1253 23.235 37.3C23.1352 37.4746 23.0828 37.6724 23.083 37.8735V44.1656C23.083 44.5753 23.2996 44.9578 23.6521 45.1631L25.0771 45.9815C25.7689 46.3228 26.0132 46.3218 26.3249 46.3218C27.3421 46.3218 27.9257 45.6942 27.9257 44.6156V38.407C27.9251 38.3638 27.9077 38.3225 27.8773 38.2918C27.8469 38.2611 27.8057 38.2434 27.7625 38.2425H27.0716C27.0282 38.2432 26.9869 38.2608 26.9562 38.2915C26.9256 38.3222 26.9081 38.3636 26.9075 38.407V44.617C26.9075 45.0946 26.4064 45.5732 25.6063 45.164L24.1274 44.3039C24.073 44.2767 24.0454 44.2073 24.0454 44.1529V37.8595C24.0454 37.8051 24.073 37.7376 24.1274 37.71L29.5391 34.5707C29.5799 34.5435 29.6483 34.5435 29.7027 34.5707L35.1158 37.71C35.1697 37.7376 35.1964 37.7915 35.1964 37.86V44.1525C35.1964 44.2204 35.1697 44.2762 35.1158 44.3034L29.7027 47.4567C29.6619 47.4839 29.5935 47.4839 29.5391 47.4567L28.1558 46.6228C28.115 46.5956 28.0607 46.582 28.0199 46.6092C27.6402 46.8276 27.5736 46.8562 27.2071 46.979C27.1255 47.0062 26.99 47.0601 27.261 47.2101L29.0657 48.2892C29.2419 48.3843 29.4313 48.4387 29.6347 48.4387C29.8382 48.4387 30.0411 48.3848 30.2038 48.3168L35.6174 45.1635C35.7911 45.0615 35.9351 44.9157 36.0349 44.7407C36.1348 44.5657 36.187 44.3675 36.1864 44.1661V37.8735C36.1864 37.4639 35.9699 37.0828 35.6174 36.8779L30.2038 33.7246C30.0294 33.629 29.8336 33.5793 29.6347 33.5803ZM38.0863 36.4537C37.8085 36.4548 37.5425 36.5662 37.3467 36.7633C37.151 36.9605 37.0415 37.2273 37.0424 37.5051C37.0416 37.7829 37.1512 38.0495 37.3469 38.2466C37.5426 38.4436 37.8086 38.5549 38.0863 38.556C38.6568 38.556 39.1307 38.0784 39.1307 37.5051C39.1292 37.228 39.0189 36.9625 38.8236 36.7659C38.6282 36.5693 38.3634 36.4569 38.0863 36.4537ZM38.0722 36.6314C38.1878 36.6299 38.3025 36.6515 38.4096 36.6948C38.5168 36.7381 38.6143 36.8022 38.6964 36.8835C38.7785 36.9648 38.8437 37.0617 38.888 37.1684C38.9324 37.2751 38.9551 37.3895 38.9549 37.5051C38.9549 37.9832 38.5611 38.3929 38.0727 38.3929C37.5983 38.3929 37.2046 37.9964 37.2046 37.5051C37.2046 37.0139 37.6114 36.6314 38.0722 36.6314ZM37.693 36.9178V38.1187H37.9246V37.6425H38.128C38.2096 37.6425 38.2363 37.6696 38.2499 37.7376C38.2499 37.7517 38.2902 38.0517 38.2902 38.106H38.5339C38.5068 38.0517 38.4932 37.8876 38.4796 37.792C38.4664 37.642 38.4533 37.5328 38.2902 37.5192C38.3718 37.4915 38.5072 37.4507 38.5072 37.2323C38.5072 36.9182 38.2354 36.9182 38.1004 36.9182L37.693 36.9178ZM37.8969 37.109H38.0863C38.1547 37.109 38.2625 37.109 38.2625 37.2726C38.2625 37.327 38.2363 37.4371 38.0863 37.4371H37.8964L37.8969 37.109ZM31.1141 38.0512C29.5672 38.0512 28.6447 38.7065 28.6447 39.8123C28.6447 41.0001 29.5672 41.3264 31.0461 41.4768C32.8227 41.6545 32.9586 41.9142 32.9586 42.269C32.9586 42.8831 32.4693 43.1428 31.3297 43.1428C29.8916 43.1428 29.5799 42.7875 29.4711 42.0642C29.4711 41.9821 29.4046 41.9282 29.323 41.9282H28.6175C28.5744 41.9287 28.5333 41.9462 28.5029 41.9768C28.4726 42.0074 28.4555 42.0487 28.4554 42.0918C28.4554 43.02 28.9433 44.1121 31.318 44.1121C33.0266 44.1121 34.0171 43.4287 34.0171 42.2278C34.0171 41.0535 33.2296 40.74 31.5618 40.5215C29.8789 40.3031 29.7032 40.1803 29.7032 39.7846C29.7032 39.457 29.8522 39.0206 31.1 39.0206C32.2124 39.0206 32.6324 39.2667 32.7955 40.0171C32.8037 40.051 32.8227 40.0813 32.8497 40.1033C32.8767 40.1253 32.9102 40.1378 32.945 40.139H33.6636C33.7049 40.139 33.7457 40.1123 33.7733 40.0851C33.7979 40.0486 33.8117 40.0059 33.8132 39.9618C33.7049 38.6517 32.8508 38.0512 31.1141 38.0512Z" fill="#5FA04E"/>
<path d="M40.3463 11.5612C40.2886 11.5603 40.2316 11.5747 40.1813 11.6029C40.1289 11.6337 40.0853 11.6773 40.0545 11.7296C40.0238 11.7819 40.0069 11.8413 40.0055 11.902V20.7749C40.0055 20.8565 39.9633 20.939 39.8822 20.9934C39.8447 21.0135 39.8029 21.024 39.7603 21.024C39.7178 21.024 39.6759 21.0135 39.6385 20.9934L38.2013 20.1614C38.0958 20.1011 37.9764 20.0694 37.8549 20.0694C37.7334 20.0694 37.614 20.1011 37.5085 20.1614L31.7578 23.5059C31.6514 23.5659 31.5627 23.6529 31.5008 23.7582C31.4388 23.8635 31.4057 23.9833 31.4049 24.1054V30.7804C31.4049 31.026 31.5408 31.2585 31.7578 31.3813L37.5094 34.7259C37.6148 34.7861 37.7342 34.8177 37.8556 34.8177C37.977 34.8177 38.0963 34.7861 38.2017 34.7259L43.9528 31.3813C44.1699 31.2585 44.3058 31.026 44.3058 30.7804V14.1412C44.3058 13.882 44.1699 13.649 43.9528 13.5267L40.5216 11.6029C40.4673 11.5757 40.407 11.5614 40.3463 11.5612ZM6.41581 19.889C6.30753 19.889 6.19925 19.9284 6.10456 19.9828L0.352995 23.3151C0.244899 23.3766 0.15519 23.4659 0.0931377 23.5737C0.0310854 23.6815 -0.00105886 23.8039 2.66077e-05 23.9282L0.0140891 32.8823C0.0140891 33.0056 0.0811204 33.1284 0.18987 33.1832C0.240285 33.2163 0.299265 33.2339 0.359558 33.2339C0.419851 33.2339 0.47883 33.2163 0.529245 33.1832L3.94831 31.2178C4.16534 31.0949 4.29987 30.8624 4.29987 30.6168V26.4262C4.29987 26.1806 4.43581 25.9481 4.65331 25.8253L6.10456 24.9792C6.21284 24.9107 6.33565 24.8835 6.45753 24.8835C6.5794 24.8835 6.70175 24.9107 6.7969 24.9792L8.24815 25.8253C8.46518 25.9481 8.60112 26.1806 8.60112 26.4262V30.6168C8.60112 30.8624 8.73612 31.0949 8.95268 31.2178L12.3446 33.1832C12.3973 33.2169 12.4585 33.2347 12.521 33.2347C12.5836 33.2347 12.6448 33.2169 12.6975 33.1832C12.7515 33.1539 12.7965 33.1103 12.8275 33.0573C12.8586 33.0043 12.8746 32.9437 12.8738 32.8823V23.9282C12.8738 23.6826 12.7378 23.4501 12.5203 23.3268L6.78284 19.9828C6.68618 19.9315 6.58047 19.8995 6.47159 19.8885L6.41581 19.889ZM53.6035 19.9874C53.4849 19.9874 53.3672 20.0184 53.2585 20.0803L47.506 23.4229C47.2889 23.5457 47.1544 23.7782 47.1544 24.0243V30.6993C47.1544 30.9449 47.2889 31.1774 47.506 31.3003L53.2172 34.5754C53.3201 34.6357 53.4371 34.6675 53.5564 34.6675C53.6756 34.6675 53.7927 34.6357 53.8955 34.5754L57.3549 32.6381C57.4088 32.6086 57.4536 32.5651 57.4846 32.512C57.5156 32.459 57.5315 32.3985 57.5307 32.3371C57.5313 32.2759 57.5153 32.2156 57.4844 32.1628C57.4534 32.1099 57.4086 32.0665 57.3549 32.0371L51.5766 28.6921C51.524 28.6613 51.4803 28.6174 51.4495 28.5648C51.4187 28.5122 51.402 28.4526 51.4008 28.3917V26.3029C51.4001 26.2417 51.4161 26.1814 51.4471 26.1285C51.4781 26.0757 51.5228 26.0323 51.5766 26.0029L53.3813 24.9651C53.434 24.9315 53.4952 24.9136 53.5578 24.9136C53.6203 24.9136 53.6815 24.9315 53.7342 24.9651L55.5371 26.0024C55.5899 26.0331 55.6339 26.0769 55.6649 26.1295C55.696 26.1821 55.7129 26.2418 55.7142 26.3029V27.9412C55.7142 28.0645 55.7817 28.1873 55.89 28.2417C55.9428 28.2754 56.0041 28.2933 56.0667 28.2933C56.1294 28.2933 56.1907 28.2754 56.2435 28.2417L59.6611 26.2354C59.7659 26.1743 59.8526 26.0863 59.9122 25.9807C59.9719 25.875 60.0023 25.7553 60.0005 25.634V24.0098C60.0005 23.7642 59.8646 23.5331 59.6611 23.4098L53.9499 20.0798C53.8445 20.0195 53.7253 19.9875 53.6039 19.987L53.6035 19.9874ZM37.8549 24.9721C37.8853 24.9721 37.9163 24.9792 37.9439 24.9932L39.9099 26.1398C39.9642 26.167 39.9919 26.2345 39.9919 26.2893V28.5824C39.9919 28.6509 39.9642 28.7062 39.9099 28.7334L37.9435 29.8799C37.9159 29.8934 37.8856 29.9005 37.8549 29.9005C37.8242 29.9005 37.7939 29.8934 37.7663 29.8799L35.7999 28.7334C35.7455 28.7062 35.7178 28.6373 35.7178 28.5824V26.2893C35.7178 26.2209 35.746 26.167 35.7999 26.1393L37.7663 24.9932C37.7938 24.9789 37.8239 24.9717 37.8549 24.9721Z" fill="#333333"/>
<path d="M22.4916 20.1061C22.3863 20.0455 22.2671 20.0137 22.1457 20.0137C22.0242 20.0137 21.905 20.0455 21.7997 20.1061L16.0885 23.4234C15.9838 23.4845 15.8972 23.5723 15.8376 23.6778C15.778 23.7833 15.7474 23.9027 15.7491 24.0239V30.6712C15.7491 30.9173 15.885 31.1494 16.0885 31.2722L21.7997 34.589C21.905 34.6496 22.0242 34.6814 22.1457 34.6814C22.2671 34.6814 22.3863 34.6496 22.4916 34.589L28.2024 31.2722C28.4194 31.1494 28.5417 30.9173 28.5417 30.6712V24.0239C28.5417 23.7783 28.4058 23.5458 28.2024 23.4234L22.4916 20.1061Z" fill="url(#paint0_linear_136_112)"/>
<path d="M28.2156 23.4234L22.4777 20.1061C22.4213 20.0775 22.3623 20.0548 22.3014 20.0381L15.8711 31.1081C15.9255 31.1765 15.993 31.2309 16.0609 31.2721L21.7994 34.589C21.962 34.6846 22.1519 34.7118 22.3281 34.657L28.3652 23.5462C28.3255 23.4942 28.2743 23.4522 28.2156 23.4234Z" fill="url(#paint1_linear_136_112)"/>
<path d="M28.2164 31.2717C28.3795 31.1761 28.5014 31.0125 28.5557 30.8349L22.2745 20.0241C22.1123 19.9969 21.9356 20.0105 21.7865 20.1061L16.0889 23.4094L22.2342 34.6842C22.3153 34.6706 22.4104 34.6435 22.492 34.6022L28.2164 31.2717Z" fill="url(#paint2_linear_136_112)"/>
<defs>
<linearGradient id="paint0_linear_136_112" x1="24.4713" y1="22.5763" x2="19.2556" y2="33.1502" gradientUnits="userSpaceOnUse">
<stop stop-color="#3F873F"/>
<stop offset="0.33" stop-color="#3F8B3D"/>
<stop offset="0.637" stop-color="#3E9638"/>
<stop offset="0.934" stop-color="#3DA92E"/>
<stop offset="1" stop-color="#3DAE2B"/>
</linearGradient>
<linearGradient id="paint1_linear_136_112" x1="21.2774" y1="28.1238" x2="35.8299" y2="17.4378" gradientUnits="userSpaceOnUse">
<stop offset="0.138" stop-color="#3F873F"/>
<stop offset="0.402" stop-color="#52A044"/>
<stop offset="0.713" stop-color="#64B749"/>
<stop offset="0.908" stop-color="#6ABF4B"/>
</linearGradient>
<linearGradient id="paint2_linear_136_112" x1="15.5406" y1="27.3453" x2="28.7558" y2="27.3453" gradientUnits="userSpaceOnUse">
<stop offset="0.092" stop-color="#6ABF4B"/>
<stop offset="0.287" stop-color="#64B749"/>
<stop offset="0.598" stop-color="#52A044"/>
<stop offset="0.862" stop-color="#3F873F"/>
</linearGradient>
</defs>
</svg>
