<svg width="43" height="60" viewBox="0 0 43 60" fill="none" xmlns="http://www.w3.org/2000/svg">
<path d="M21.2493 59.8506L3.93314 55.0434L0.0742188 11.7621H42.4763L38.6134 55.0368L21.2493 59.8506Z" fill="#264DE4"/>
<path d="M35.3064 52.2812L38.6074 15.3009H21.2754V56.171L35.3064 52.2812Z" fill="#2965F1"/>
<path d="M8.91991 31.3534L9.39561 36.6617H21.2745V31.3534H8.91991ZM7.96387 20.6094L8.44638 25.9177H21.2745V20.6094H7.96387ZM21.2745 45.1396L21.2513 45.1458L15.3395 43.5495L14.9615 39.3159H9.63279L10.3764 47.6507L21.2501 50.6691L21.2745 50.6625V45.1396Z" fill="#EBEBEB"/>
<path d="M10.0527 0H16.4818V2.68863H12.7414V5.37726H16.4821V8.06572H10.0527V0ZM17.7677 0H24.197V2.33792H20.4564V2.80547H24.197V8.18273H17.7679V5.72763H21.5085V5.26008H17.7676L17.7677 0ZM25.4829 0H31.9121V2.33792H28.1716V2.80547H31.9121V8.18273H25.4829V5.72763H29.2235V5.26008H25.4831L25.4829 0Z" fill="black"/>
<path d="M33.596 31.3534L34.5542 20.6094H21.257V25.9177H28.7368L28.2538 31.3534H21.257V36.6617H27.7936L27.1773 43.5462L21.2568 45.1441V50.6666L32.1392 47.6507L32.2189 46.7539L33.4665 32.7788L33.596 31.3534Z" fill="white"/>
</svg>
