<svg width="89" height="89" viewBox="0 0 89 89" fill="none" xmlns="http://www.w3.org/2000/svg">
<path d="M15.7627 32.6797H85.0645V83.9034H15.7627V32.6797Z" fill="white"/>
<path d="M1.04297 44.4374V87.8944H87.957V0.980347H1.04297V44.4374ZM71.0818 40.9608C73.1635 41.4439 75.0555 42.5326 76.5191 44.0897C77.3248 44.9287 78.0253 45.8626 78.6051 46.871C78.6051 46.9822 74.8504 49.5201 72.5628 50.9385C72.4794 50.9942 72.1456 50.6326 71.7771 50.0833C71.3595 49.3627 70.7662 48.7597 70.0524 48.3305C69.3387 47.9013 68.5279 47.6599 67.6956 47.6289C65.0604 47.4481 63.3638 48.8318 63.3777 51.1054C63.3566 51.6714 63.4862 52.2329 63.7532 52.7325C64.3303 53.9353 65.408 54.6515 68.7873 56.1117C75.0103 58.7886 77.6734 60.5547 79.3282 63.0648C81.1777 65.846 81.588 70.3378 80.3364 73.6614C78.9458 77.277 75.5387 79.7314 70.7202 80.545C68.5195 80.7972 66.2958 80.7738 64.1009 80.4754C60.7367 79.9209 57.6378 78.3057 55.2565 75.8655C54.4569 74.9825 52.8994 72.681 52.9967 72.5141C53.2501 72.3249 53.5174 72.1553 53.7963 72.0065L57.0156 70.2265L59.5118 68.7803L60.0333 69.5521C60.9136 70.8108 62.0336 71.8835 63.3291 72.7088C66.1103 74.1689 69.9067 73.9673 71.7841 72.2777C72.4144 71.6585 72.8076 70.838 72.8953 69.9588C72.9829 69.0796 72.7595 68.1975 72.2638 67.4661C71.5685 66.4996 70.1779 65.6861 66.2911 63.9896C61.8063 62.0566 59.8734 60.8607 58.1073 58.9555C57.0051 57.698 56.1911 56.2149 55.7223 54.6098C55.373 52.7759 55.3213 50.8976 55.5694 49.0473C56.4941 44.7155 59.7412 41.6909 64.4833 40.7939C66.6794 40.5226 68.9038 40.5836 71.0818 40.9747V40.9608ZM50.6813 44.6043V48.1642H39.3964V80.3085H31.3934V48.1573H20.0806V44.6807C20.0451 43.4819 20.073 42.2819 20.1641 41.086C20.2197 41.0234 27.1172 41.0234 35.4609 41.0234H50.6396L50.6813 44.6043Z" fill="#007ACC"/>
</svg>
