<svg width="60" height="60" viewBox="0 0 60 60" fill="none" xmlns="http://www.w3.org/2000/svg">
<path d="M4.51192 15.0848C-0.657923 22.5149 -0.0143295 32.1829 3.93489 40.0785C4.02864 40.2679 4.12708 40.454 4.22411 40.6401L4.4088 40.9959L4.52411 41.2007L4.72989 41.5692C4.8527 41.7851 4.97833 42.0006 5.10676 42.2156L5.32192 42.5699C5.46442 42.7996 5.6102 43.0278 5.75926 43.2543L5.94583 43.5421C6.15161 43.8492 6.36208 44.1557 6.57958 44.4567L6.59786 44.4801L6.70473 44.6245C6.89317 44.8838 7.08567 45.1399 7.28223 45.3928L7.49973 45.6693C7.67473 45.889 7.85255 46.1076 8.03317 46.3251L8.23708 46.5688C8.48033 46.8559 8.72817 47.1391 8.98051 47.4182L8.99598 47.4337L9.02458 47.4656C9.27255 47.7347 9.52445 48.0002 9.7802 48.262L10.0225 48.5062C10.221 48.7056 10.4221 48.9028 10.6258 49.0978L10.8729 49.3321C11.1444 49.5884 11.42 49.8395 11.6997 50.0854L11.7129 50.0957L11.8568 50.2185C12.1043 50.4329 12.3547 50.6443 12.6082 50.8528L12.9194 51.1007C13.1263 51.2667 13.335 51.4298 13.5457 51.5901L13.8804 51.8446C14.1129 52.0159 14.3471 52.1838 14.583 52.3485L14.839 52.5299L14.9093 52.5801C15.1333 52.7343 15.3625 52.8829 15.5918 53.0315L15.8871 53.2284C16.2386 53.4506 16.5949 53.6704 16.9554 53.8828L17.2507 54.0492C17.5154 54.2023 17.7825 54.3521 18.0522 54.4987C18.1985 54.5774 18.3485 54.652 18.4957 54.7274C18.6865 54.8273 18.8758 54.9285 19.0699 55.0256L19.2025 55.0898L19.4374 55.2032C19.7377 55.347 20.0408 55.4871 20.3468 55.6237L20.539 55.7099C20.8898 55.8634 21.2435 56.0105 21.5997 56.151L21.858 56.2528C22.188 56.3798 22.5227 56.5054 22.8588 56.6235L22.9844 56.6671C23.3533 56.796 23.7255 56.9156 24.1005 57.0323L24.37 57.1129C24.7516 57.2278 25.129 57.3651 25.5222 57.4378C50.5249 61.9973 57.7877 42.4129 57.7877 42.4129C51.6879 50.3596 40.8607 52.4559 30.6021 50.122C30.2135 50.0343 29.8366 49.9129 29.4574 49.8009L29.1719 49.7142C28.8024 49.6009 28.4349 49.4813 28.0694 49.3556L27.918 49.3007C27.5921 49.1856 27.268 49.0654 26.9458 48.9403L26.673 48.8329C26.3199 48.6938 25.97 48.5484 25.6235 48.3965L25.414 48.3037C25.1173 48.1697 24.8221 48.0323 24.5285 47.8917L24.2725 47.7688C24.0424 47.6568 23.8146 47.5378 23.5877 47.4206C23.4358 47.3404 23.2811 47.2649 23.1307 47.1815C22.8545 47.0327 22.5809 46.8793 22.3099 46.7212L22.0329 46.5665C21.673 46.3541 21.3167 46.1358 20.9641 45.9117L20.6758 45.7195C20.4195 45.5551 20.1658 45.3865 19.915 45.2137L19.6704 45.0417C19.4288 44.8709 19.1891 44.6976 18.9513 44.5218L18.633 44.2809C18.4145 44.1147 18.1982 43.9457 17.9843 43.7737L17.695 43.5417C17.4226 43.3183 17.1532 43.0912 16.8869 42.8606L16.7983 42.786C16.5115 42.5328 16.2283 42.2755 15.949 42.014L15.7094 41.7838C15.5027 41.587 15.2993 41.3887 15.0991 41.1853L14.86 40.9467C14.606 40.6867 14.3563 40.4226 14.111 40.1545L14.074 40.1151C13.8154 39.8316 13.5621 39.5435 13.3141 39.2507L13.1154 39.0145C12.9301 38.7916 12.7477 38.5662 12.5683 38.3385L12.3682 38.0892C12.1537 37.8119 11.9432 37.5315 11.7368 37.2482C6.04145 29.4792 3.99489 18.7645 8.54692 9.9651M20.5605 8.82416C16.8213 14.2045 17.0247 21.4073 19.9413 27.0974C20.4299 28.0537 20.9824 28.9759 21.595 29.8579C22.1552 30.6609 22.7763 31.6162 23.5197 32.2612C23.7916 32.559 24.0714 32.8494 24.3588 33.1321L24.58 33.3501C24.8593 33.6222 25.145 33.8876 25.4369 34.146L25.4716 34.176L25.48 34.1845C25.8066 34.4689 26.1403 34.7451 26.4808 35.0128L26.7082 35.1899C27.0505 35.4537 27.3995 35.7086 27.7549 35.9545L27.7854 35.9774C27.9429 36.0862 28.1032 36.1874 28.263 36.2924L28.4894 36.442C28.7444 36.606 29.003 36.7646 29.2652 36.9178L29.3754 36.9815C29.6022 37.1121 29.8308 37.2399 30.0611 37.3649L30.3054 37.492C30.4643 37.5749 30.6232 37.6598 30.7849 37.7404L30.8575 37.7732C31.1871 37.9354 31.5194 38.092 31.8588 38.2396L32.08 38.3306C32.3515 38.4459 32.6257 38.5584 32.9004 38.6634L33.2519 38.7923C33.5018 38.8851 33.7525 38.9695 34.0052 39.0543L34.346 39.1635C34.7055 39.2751 35.0608 39.4162 35.4354 39.4785C54.7399 42.6768 59.1968 27.8132 59.1968 27.8132C55.1796 33.599 47.3993 36.3599 39.0972 34.2046C38.7302 34.1082 38.3656 34.0028 38.0036 33.8887L37.675 33.7823C37.4185 33.6994 37.1637 33.6115 36.9105 33.5188L36.5655 33.3904C36.2893 33.2844 36.0149 33.1738 35.7424 33.0585L35.5207 32.9648C35.1812 32.817 34.8455 32.6609 34.5138 32.4965C34.3436 32.4135 34.1763 32.3259 34.0085 32.2396L33.7169 32.0896C33.5019 31.973 33.2889 31.8527 33.078 31.7287L32.9252 31.642C32.6641 31.4897 32.4061 31.3322 32.1513 31.1695L31.9179 31.0138C31.7497 30.9051 31.5827 30.7946 31.4168 30.6824C31.063 30.4364 30.715 30.1819 30.3733 29.9193L30.1385 29.7342C26.5047 26.8654 23.6238 22.9438 22.2546 18.4978C20.8193 13.8871 21.1286 8.71119 23.6154 4.51025M34.0582 4.14697C31.8541 7.39072 31.6375 11.4192 33.1671 15.0013C34.78 18.8043 38.0847 21.787 41.9421 23.2021C42.101 23.2607 42.2604 23.3132 42.4211 23.3681L42.6325 23.4351C42.8599 23.5063 43.0854 23.5893 43.3202 23.6338C53.9796 25.6935 56.8708 18.164 57.64 17.0554C55.1079 20.7018 50.8516 21.577 45.6293 20.3095C45.2168 20.2096 44.7635 20.0606 44.366 19.9195C43.8553 19.7382 43.3544 19.5303 42.8655 19.2965C41.9374 18.8504 41.0562 18.3127 40.2349 17.6915C35.5619 14.1454 32.659 7.38182 35.7082 1.87354" fill="#0868AC"/>
</svg>
