<svg width="108" height="108" viewBox="0 0 108 108" fill="none" xmlns="http://www.w3.org/2000/svg">
<path d="M44.37 9C40.9567 9 37.6831 10.3559 35.2695 12.7695C32.8559 15.1831 31.5 18.4567 31.5 21.87V29.43H50.805C52.56 29.43 54 31.995 54 33.75H21.87C18.4567 33.75 15.1831 35.1059 12.7695 37.5195C10.3559 39.9331 9 43.2067 9 46.62V63.6345C9 67.0478 10.3559 70.3214 12.7695 72.735C15.1831 75.1486 18.4567 76.5045 21.87 76.5045H27.18V64.4445C27.1741 62.7565 27.5014 61.084 28.1433 59.5228C28.7852 57.9616 29.7289 56.5424 30.9204 55.3468C32.1119 54.1511 33.5277 53.2024 35.0867 52.555C36.6456 51.9077 38.317 51.5745 40.005 51.5745H63.63C70.74 51.5745 76.5 45.855 76.5 38.745V21.87C76.5 18.4567 75.1441 15.1831 72.7305 12.7695C70.3169 10.3559 67.0433 9 63.63 9H44.37ZM41.13 16.245C42.93 16.245 44.37 16.785 44.37 19.44C44.37 22.095 42.93 23.4495 41.13 23.4495C39.375 23.4495 37.935 22.0995 37.935 19.4445C37.935 16.7895 39.375 16.245 41.13 16.245Z" fill="#0288D1"/>
<path d="M80.8155 31.5V43.56C80.8208 45.2476 80.493 46.9197 79.8509 48.4804C79.2088 50.041 78.2649 51.4596 77.0735 52.6548C75.8821 53.85 74.4664 54.7983 72.9078 55.4454C71.3491 56.0924 69.6781 56.4255 67.9905 56.4255H44.37C42.682 56.4196 41.0095 56.7469 39.4483 57.3888C37.8871 58.0307 36.4679 58.9744 35.2723 60.1659C34.0766 61.3574 33.1279 62.7732 32.4805 64.3322C31.8332 65.8911 31.5 67.5625 31.5 69.2505V86.1255C31.5 89.5388 32.8559 92.8124 35.2695 95.226C37.6831 97.6396 40.9567 98.9955 44.37 98.9955H63.63C67.0426 98.9955 70.3154 97.6402 72.7289 95.2275C75.1423 92.8149 76.4988 89.5425 76.5 86.13V78.57H57.1905C55.4355 78.57 54 76.005 54 74.25H86.13C89.5433 74.25 92.8169 72.8941 95.2305 70.4805C97.6441 68.0669 99 64.7933 99 61.38V44.37C99 40.9567 97.6441 37.6831 95.2305 35.2695C92.8169 32.8559 89.5433 31.5 86.13 31.5H80.8155ZM37.44 51.8085L37.422 51.8265L37.593 51.8085H37.44ZM66.87 84.5505C68.625 84.5505 70.065 85.9005 70.065 88.5555C70.065 88.9751 69.9824 89.3905 69.8218 89.7782C69.6612 90.1658 69.4259 90.518 69.1292 90.8147C68.8325 91.1114 68.4803 91.3467 68.0927 91.5073C67.705 91.6679 67.2896 91.7505 66.87 91.7505C65.07 91.7505 63.63 91.2105 63.63 88.5555C63.63 85.9005 65.07 84.5505 66.87 84.5505Z" fill="#FDD835"/>
</svg>
