<svg width="99" height="99" viewBox="0 0 99 99" fill="none" xmlns="http://www.w3.org/2000/svg">
<path d="M19.0327 88.6359C16.9696 88.2304 15.0073 87.4202 13.2591 86.252C11.511 85.0838 10.0117 83.5808 8.84776 81.8298C7.68387 80.0788 6.87849 78.1145 6.47815 76.0504C6.07782 73.9863 6.09046 71.8634 6.51536 69.8042C7.56414 65.3832 7.34758 65.64 30.164 41.7748L51.6655 19.2864L57.7602 25.0964L32.9793 50.9664L53.7074 50.5209L68.3532 35.2439L74.4232 41.0849L52.903 63.5115C33.1495 84.085 31.1942 86.0278 29.1864 87.024C26.0777 88.6562 22.5205 89.2266 19.0574 88.6482L19.0327 88.6359ZM79.5897 37.0754C79.0236 36.7351 73.2073 31.3087 66.664 25.0098L54.7593 13.566L54.7222 11.8273C54.6529 11.333 54.6885 10.8296 54.8265 10.3499C54.9646 9.87017 55.202 9.42488 55.5235 9.04296C56.007 8.39184 56.6728 7.89879 57.4366 7.62619C58.2004 7.35359 59.028 7.3137 59.8145 7.51155C68.9717 15.2495 77.6308 23.5584 85.7401 32.3884C85.9737 33.1932 85.9579 34.0499 85.6948 34.8455C85.4317 35.6412 84.9336 36.3384 84.2663 36.8453C83.5989 37.3522 82.7936 37.6449 81.9566 37.6849C81.1195 37.7248 80.29 37.5102 79.5774 37.0692L79.5897 37.0754Z" fill="#58D09E"/>
<path d="M12.6378 71.7286C11.5457 78.7824 15.6078 83.5715 23.2896 82.5258C24.0785 81.6967 33.2329 72.1401 53.7971 50.5736C43.4516 50.7963 43.5877 50.3446 33.2267 50.5736C12.5326 72.0256 12.1212 71.871 12.6378 71.7286Z" fill="#58D09E"/>
<path d="M60.6374 29.5112C66.7778 29.2868 72.8468 30.8887 78.0767 34.1141C83.3065 37.3396 87.4623 42.0437 90.0182 47.6314C92.574 53.2191 93.4153 59.4394 92.4354 65.5052C91.4555 71.5711 88.6985 77.2101 84.5132 81.7088C80.328 86.2075 74.9024 89.3639 68.923 90.7785C62.9435 92.1932 56.6788 91.8027 50.9214 89.6563C45.164 87.5099 40.1725 83.7041 36.5784 78.7204C32.9843 73.7367 30.949 67.799 30.7301 61.6584C30.445 53.4326 33.4332 45.4295 39.0394 39.4034C44.6456 33.3773 52.4125 29.8199 60.6374 29.5112Z" fill="black"/>
<path d="M78.4111 50.7004L72.5639 65.3741L66.6858 50.7004H61.875L70.1291 70.7294L64.251 84.8554L68.4616 85.6846L82.9682 50.7004H78.4111Z" fill="#D2D2D2"/>
<path d="M52.7144 54.4128C53.8732 54.39 55.0121 54.7159 55.9835 55.348C56.9549 55.9802 57.714 56.8895 58.1625 57.9582L58.243 58.1346L62.3484 56.7517L62.2587 56.5444C61.4781 54.6665 60.1488 53.0679 58.4448 51.9579C56.7408 50.8478 54.7414 50.278 52.7082 50.3229C51.3223 50.2797 49.9421 50.5175 48.6505 51.0221C47.359 51.5267 46.1831 52.2876 45.1935 53.2588C44.23 54.2188 43.4656 55.3596 42.9439 56.6157C42.4223 57.8718 42.1538 59.2185 42.1538 60.5786C42.1538 61.9387 42.4223 63.2855 42.9439 64.5416C43.4656 65.7977 44.23 66.9384 45.1935 67.8984C46.1831 68.8697 47.359 69.6306 48.6505 70.1352C49.9421 70.6397 51.3223 70.8776 52.7082 70.8344C54.7411 70.8796 56.7402 70.3102 58.4442 69.2007C60.1481 68.0912 61.4776 66.4933 62.2587 64.616L62.3484 64.4056L58.2368 63.0196L58.1594 63.2052C57.7201 64.2804 56.9623 65.1954 55.9879 65.8275C55.0135 66.4596 53.8691 66.7785 52.7082 66.7414C51.913 66.7593 51.1226 66.6131 50.3864 66.3118C49.6502 66.0105 48.9841 65.5607 48.4296 64.9903C47.8611 64.4114 47.4146 63.7243 47.1164 62.9697C46.8183 62.2151 46.6747 61.4083 46.694 60.5972C46.6766 59.7807 46.821 58.9689 47.1189 58.2086C47.4168 57.4482 47.8623 56.7543 48.4296 56.1669C48.9821 55.5934 49.6477 55.1408 50.3842 54.8378C51.1207 54.5348 51.9121 54.388 52.7082 54.4066L52.7144 54.4128Z" fill="#D2D2D2"/>
<path d="M75.6328 82.2937C81.1191 78.8432 85.1038 73.4522 86.7929 67.1951C88.482 60.938 87.7515 54.2742 84.747 48.5316L88.4781 46.6011C91.9691 53.2706 92.8188 61.0106 90.8578 68.2787C88.8969 75.5467 84.2694 81.809 77.8974 85.8175L75.6328 82.2937Z" fill="url(#paint0_linear_135_173)"/>
<path d="M32.7039 68.4586C31.9898 65.8751 31.6286 63.2067 31.6304 60.5262C31.6714 54.4643 33.5398 48.5556 36.9916 43.5722C40.4434 38.5887 45.3181 34.7623 50.9787 32.5928L52.4977 36.4878C47.6266 38.3554 43.4317 41.6484 40.4608 45.9367C37.4899 50.225 35.8809 55.3095 35.8441 60.5262C35.8456 62.8325 36.1577 65.1281 36.7722 67.3511L32.7132 68.4586H32.7039Z" fill="#58D09E"/>
<path d="M50.7744 32.6887C57.7378 29.9895 65.4522 29.9537 72.4404 32.5881C79.4286 35.2225 85.1995 40.342 88.6481 46.9663L84.9016 48.8721C81.9308 43.1741 76.9648 38.7704 70.9524 36.5024C64.9401 34.2344 58.3028 34.2612 52.3089 36.5775L50.7744 32.6887Z" fill="#58D09E"/>
<path d="M65.0647 82.8784L64.0407 85.3534C63.9417 85.5921 63.7769 85.7976 63.5654 85.9461C63.354 86.0946 63.1046 86.1798 62.8465 86.1918C62.5031 86.1918 62.1535 86.2134 61.8008 86.2134C55.927 86.2068 50.2265 84.2222 45.6185 80.5796C41.0106 76.937 37.7636 71.8487 36.4011 66.135L32.2896 67.0631C33.8114 73.6457 37.5099 79.5222 42.7866 83.7415C48.1757 88.0373 54.8596 90.3838 61.7513 90.3993H61.8132C62.2185 90.3993 62.6176 90.3993 63.0198 90.3745C64.0821 90.3303 65.1096 89.9828 65.9807 89.3731C66.8519 88.7635 67.5303 87.9172 67.9357 86.9343L69.2784 83.7168L65.0647 82.8877V82.8784Z" fill="url(#paint1_linear_135_173)"/>
<defs>
<linearGradient id="paint0_linear_135_173" x1="90.5201" y1="52.6325" x2="81.3508" y2="85.9419" gradientUnits="userSpaceOnUse">
<stop stop-color="#58D09E"/>
<stop offset="1"/>
</linearGradient>
<linearGradient id="paint1_linear_135_173" x1="36.8381" y1="69.7478" x2="63.9757" y2="91.1329" gradientUnits="userSpaceOnUse">
<stop stop-color="#58D09E"/>
<stop offset="1" stop-color="#D2D2D2"/>
</linearGradient>
</defs>
</svg>
