<svg width="108" height="108" viewBox="0 0 108 108" fill="none" xmlns="http://www.w3.org/2000/svg">
<path d="M0 77.0454H3.57919V62.9151L9.11925 75.2322C9.77147 76.7256 10.665 77.2496 12.4217 77.2496C14.1784 77.2496 15.0356 76.7256 15.6878 75.2322L21.2279 62.9151V77.0445H24.8071V62.9387C24.8071 61.5609 24.257 60.8952 23.1196 60.5526C20.4002 59.7055 18.5777 60.437 17.7508 62.273L12.3162 74.4314L7.05291 62.273C6.26231 60.437 4.40353 59.7055 1.6875 60.5526C0.550125 60.8952 0 61.5609 0 62.9387L0 77.0454ZM27.7847 65.5425H31.3605V73.3278C31.3276 73.7497 31.4955 74.7419 33.4564 74.7749H41.2383V65.5029H44.8242C44.8411 65.5029 44.8175 78.1456 44.8175 78.1988C44.8369 81.3164 40.9514 81.9923 39.1584 82.0454H27.8606V79.6391L39.1787 79.6357C41.4821 79.3952 41.2088 78.2477 41.2088 77.8655V76.9264H33.6049C30.0653 76.8935 27.8142 75.3478 27.7847 73.5708C27.7813 73.4097 27.8606 65.6219 27.7847 65.5425Z" fill="#00618A"/>
<path d="M47.5801 77.0455H57.8696C59.0728 77.0455 60.2431 76.7915 61.172 76.357C62.7212 75.6482 63.4755 74.683 63.4755 73.4207V70.8068C63.4755 69.7749 62.6182 68.8096 60.9307 68.1701C60.0372 67.8241 58.9336 67.6427 57.8688 67.6427H53.531C52.0874 67.6427 51.3989 67.2073 51.2276 66.2455C51.1947 66.1299 51.1947 66.0379 51.1947 65.9223V64.2939C51.1947 64.2019 51.1947 64.1091 51.2276 63.9943C51.3989 63.2628 51.7777 63.0552 53.0501 62.9396L53.396 62.9169H63.613V60.5341H53.5682C52.1245 60.5341 51.3668 60.6261 50.6775 60.8311C48.5453 61.4968 47.6155 62.5515 47.6155 64.3875V66.4741C47.6155 68.0789 49.438 69.4568 52.5 69.7766L53.5319 69.823H57.2495C57.3878 69.823 57.5228 69.823 57.6283 69.8457C58.7623 69.9377 59.2432 70.1453 59.5892 70.5579C59.7672 70.7224 59.8693 70.957 59.8625 71.1974V73.2874C59.8625 73.538 59.6913 73.8611 59.3487 74.1345C59.039 74.4113 58.5218 74.5927 57.8359 74.6391L57.457 74.6619H47.5801V77.0455ZM85.7994 72.8925C85.7994 75.3478 87.6253 76.7223 91.3032 76.9991L92.3385 77.0455H101.663V74.6593H92.2693C90.17 74.6593 89.3786 74.132 89.3786 72.8697V60.5291H85.8028V72.8917L85.7994 72.8925ZM65.7604 73.0174V64.5107C65.7604 62.3516 67.28 61.0404 70.2786 60.6278C70.5986 60.5816 70.9215 60.5585 71.2447 60.5586H78.0344C78.3803 60.5586 78.69 60.5814 79.0368 60.6278C82.0363 61.0395 83.5525 62.3516 83.5525 64.5107V73.0174C83.5525 74.7707 82.9096 75.7073 81.4237 76.3198L84.9506 79.5008H80.7943L77.9433 76.9265L75.0728 77.1079H71.2464C70.5353 77.1057 69.8278 77.0058 69.1438 76.8109C66.8665 76.1916 65.762 74.9952 65.762 73.0174H65.7604ZM69.623 72.8098C69.623 72.9254 69.656 73.0402 69.6922 73.1794C69.8998 74.1683 70.8296 74.7184 72.2429 74.7184H75.493L72.507 72.0226H76.6633L79.2671 74.3758C79.748 74.1185 80.0611 73.7295 80.1733 73.2258C80.2062 73.1102 80.2062 72.9955 80.2062 72.8799V64.7225C80.2062 64.6305 80.2062 64.5149 80.1733 64.3993C79.9657 63.4796 79.0359 62.9523 77.6555 62.9523H72.2437C70.6583 62.9523 69.6239 63.6408 69.6239 64.7225L69.623 72.8098Z" fill="#E48E00"/>
<path d="M104.81 56.5709C102.612 56.5118 100.93 56.716 99.4935 57.3227C99.0851 57.4939 98.4321 57.4973 98.3663 58.0086C98.5907 58.2457 98.627 58.5984 98.805 58.8853C99.1476 59.4422 99.7281 60.1838 100.245 60.5728L101.995 61.8249C103.069 62.4805 104.273 62.8568 105.311 63.5124C105.921 63.9014 106.527 64.3891 107.124 64.8278C107.417 65.0421 107.615 65.3813 108 65.5163V65.4539C107.799 65.1965 107.746 64.8438 107.561 64.5772L106.747 63.763C105.953 62.7083 104.944 61.7819 103.87 61.0107C103.013 60.3973 101.102 59.567 100.742 58.5714L100.68 58.509C101.286 58.4432 101.999 58.2221 102.555 58.0736C103.498 57.8196 104.338 57.8854 105.308 57.6348L106.623 57.256V57.0088C106.132 56.5042 105.783 55.8385 105.245 55.3803C103.848 54.1907 102.318 52.9976 100.743 52.002C99.8698 51.4518 98.7924 51.0958 97.8659 50.6275C97.5563 50.4697 97.0087 50.3904 96.8011 50.1263C96.3168 49.507 96.0527 48.7223 95.6772 48.0001L93.4261 43.2472C92.9519 42.163 92.6414 41.0914 92.0483 40.1194C89.2107 35.4493 86.1521 32.6312 81.4153 29.8628C80.4104 29.273 79.1937 29.0418 77.9155 28.7389L75.8491 28.6141C75.4306 28.436 74.9952 27.9222 74.6004 27.675C73.0318 26.6827 69.0071 24.5278 67.8436 27.3619C67.1121 29.1515 68.9413 30.8981 69.5969 31.8051C70.0551 32.4413 70.6449 33.1534 70.9714 33.8681C71.1891 34.3364 71.2254 34.8072 71.4101 35.305C71.8649 36.531 72.2607 37.8624 72.8504 38.9964C73.1474 39.5702 73.4731 40.1734 73.8494 40.6839C74.0798 40.9969 74.4755 41.1387 74.5379 41.623C74.1523 42.1638 74.1296 43.0008 73.9119 43.686C72.9331 46.7673 73.3018 50.5971 74.7261 52.8812C75.1615 53.5798 76.1891 55.0825 77.6033 54.5062C78.8394 54.0016 78.5626 52.4432 78.9153 51.0654C78.998 50.7557 78.9482 50.5246 79.1035 50.317V50.3794L80.2307 52.6306C81.0643 53.9721 82.5409 55.3727 83.7939 56.3186C84.4461 56.8097 84.9574 57.6602 85.7978 57.947V57.8812H85.7353C85.5708 57.6306 85.3168 57.5251 85.1093 57.321C84.6182 56.84 84.074 56.2435 83.6724 55.6925C82.5316 54.1468 81.5233 52.4525 80.607 50.6891C80.1683 49.8487 79.7861 48.9189 79.4173 48.0625C79.2756 47.7326 79.279 47.2322 78.982 47.0635C78.577 47.6896 77.9804 48.1975 77.6666 48.9392C77.1654 50.1221 77.1029 51.5691 76.9148 53.0659L76.7899 53.1284C75.92 52.9174 75.6129 52.0214 75.2906 51.2527C74.4696 49.3079 74.3186 46.1733 75.04 43.9357C75.2247 43.3561 76.0685 41.5293 75.7259 40.9961C75.5648 40.462 75.0273 40.1523 74.7269 39.744C74.3342 39.1964 73.9986 38.61 73.7254 37.994C73.0563 36.4744 72.7433 34.7743 72.0379 33.2412C71.7021 32.5063 71.1317 31.7646 70.6634 31.1124C70.1428 30.391 69.5623 29.8603 69.1607 28.9862C69.019 28.6765 68.8249 28.1787 69.0358 27.8589C69.1016 27.6446 69.2004 27.556 69.4113 27.4868C69.7741 27.2067 70.7858 27.5788 71.1612 27.734C72.1661 28.1525 73.004 28.5482 73.8536 29.1119C74.2586 29.3819 74.6712 29.9058 75.1657 30.051H75.7293C76.6093 30.2518 77.5948 30.11 78.4192 30.3606C79.873 30.8019 81.1782 31.4912 82.3578 32.2397C85.9631 34.5136 88.9104 37.7536 90.9269 41.6196C91.2535 42.2423 91.3918 42.8355 91.6787 43.4953C92.2558 44.8267 92.9806 46.1978 93.5544 47.4997C94.1281 48.8016 94.685 50.1103 95.4925 51.1911C95.9177 51.7581 97.5622 52.061 98.3072 52.3774C98.8312 52.5985 99.6884 52.8288 100.183 53.1292C101.132 53.6996 102.048 54.378 102.939 55.0049C103.38 55.3213 104.745 56.0072 104.814 56.57L104.81 56.5709ZM76.8506 32.7417C76.4722 32.7356 76.0946 32.7775 75.7268 32.8666V32.929H75.7892C76.0069 33.3804 76.3925 33.6707 76.6625 34.0562L77.2886 35.3683L77.351 35.3092C77.74 35.0358 77.9146 34.5971 77.9146 33.9314C77.7568 33.7668 77.7366 33.5627 77.6016 33.3677C77.4236 33.107 77.0785 32.9627 76.8506 32.7417Z" fill="#00618A"/>
</svg>
