<svg width="68" height="60" viewBox="0 0 68 60" fill="none" xmlns="http://www.w3.org/2000/svg">
<path d="M55.3903 19.4273C54.6733 19.1814 53.9503 18.9535 53.2218 18.7439C53.3442 18.2439 53.4568 17.75 53.5568 17.2647C55.1984 9.29601 54.1253 2.87627 50.4597 0.762586C46.9453 -1.26373 41.1976 0.849165 35.3929 5.90101C34.8208 6.39976 34.2614 6.91291 33.7153 7.43995C33.3496 7.0895 32.9776 6.74585 32.5992 6.40916C26.5155 1.00759 20.4176 -1.26899 16.7561 0.850744C13.2447 2.88338 12.205 8.91838 13.6829 16.4705C13.8299 17.2184 13.996 17.9625 14.1808 18.7021C13.3176 18.9473 12.4847 19.2084 11.6876 19.4863C4.555 21.9731 0 25.8702 0 29.9126C0 34.0876 4.89 38.2752 12.3189 40.8144C12.9212 41.0194 13.5285 41.2094 14.1403 41.3842C13.9417 42.1807 13.7653 42.9826 13.6113 43.7889C12.2024 51.21 13.3026 57.1023 16.8045 59.1221C20.4213 61.2079 26.4918 59.0642 32.4026 53.8971C32.8819 53.4769 33.3506 53.045 33.8084 52.6015C34.3999 53.1722 35.0071 53.7263 35.6295 54.2631C41.3553 59.19 47.01 61.1794 50.5084 59.1542C54.1218 57.0623 55.2963 50.7323 53.7716 43.031C53.6515 42.4277 53.5168 41.8273 53.3676 41.2305C53.7939 41.1042 54.2124 40.9742 54.6203 40.8389C62.3434 38.2802 67.3684 34.1434 67.3684 29.9126C67.3684 25.8555 62.6663 21.9321 55.3903 19.4273ZM53.7153 38.1073C53.3465 38.2291 52.9693 38.3471 52.5837 38.4613C51.7311 35.7621 50.5805 32.8921 49.1724 29.9265C50.5161 27.0318 51.6224 24.1984 52.4511 21.5168C53.1403 21.7163 53.8089 21.9265 54.4537 22.1484C60.6879 24.2947 64.4905 27.4676 64.4905 29.9126C64.4905 32.5168 60.3837 35.8976 53.7153 38.1073ZM50.9484 43.59C51.6226 46.9952 51.7187 50.0742 51.2721 52.4813C50.8711 54.6442 50.0642 56.086 49.0663 56.6636C46.9434 57.8926 42.4032 56.2952 37.5066 52.0815C36.9277 51.5824 36.3629 51.0673 35.8126 50.5368C37.7111 48.4607 39.6082 46.0473 41.4597 43.3668C44.7166 43.0779 47.7934 42.6052 50.5837 41.9602C50.7214 42.515 50.843 43.0582 50.9484 43.59ZM22.9674 56.4513C20.8932 57.1836 19.2411 57.2047 18.2424 56.6289C16.1174 55.4034 15.2339 50.6721 16.4389 44.3257C16.5822 43.5758 16.7462 42.83 16.9308 42.0892C19.6903 42.6997 22.7447 43.1386 26.0092 43.4034C27.8734 46.0263 29.8253 48.4371 31.7924 50.5481C31.3743 50.9526 30.9464 51.3468 30.5089 51.7302C27.895 54.015 25.2758 55.636 22.9674 56.4513ZM13.25 38.0913C9.965 36.9684 7.25211 35.5092 5.39263 33.9168C3.72158 32.486 2.87816 31.0652 2.87816 29.9126C2.87816 27.4594 6.53526 24.3305 12.635 22.2039C13.3753 21.946 14.15 21.7026 14.9539 21.4742C15.7971 24.2163 16.9029 27.0834 18.2374 29.9826C16.8855 32.9247 15.7639 35.8376 14.9126 38.6121C14.3542 38.4521 13.7999 38.2784 13.25 38.0913ZM16.5074 15.9176C15.2413 9.44732 16.0821 4.56653 18.1982 3.34153C20.4518 2.0368 25.4355 3.89706 30.6884 8.56127C31.031 8.86609 31.368 9.17711 31.6992 9.49416C29.7418 11.596 27.8079 13.9889 25.9603 16.5963C22.7918 16.89 19.7589 17.3615 16.9705 17.9934C16.7987 17.3055 16.6443 16.6132 16.5074 15.9176ZM45.5671 23.0936C44.9085 21.956 44.2254 20.8327 43.5184 19.7244C45.6679 19.9963 47.7274 20.3571 49.6613 20.7981C49.0808 22.6592 48.3571 24.6047 47.5053 26.5994C46.8826 25.418 46.2364 24.2492 45.5671 23.0936ZM33.7166 11.5513C35.0439 12.9894 36.3734 14.595 37.6811 16.3371C35.0284 16.2118 32.3714 16.2112 29.7187 16.3355C31.0276 14.6094 32.3684 13.006 33.7166 11.5513ZM21.79 23.1131C21.129 24.2594 20.4949 25.4209 19.8882 26.5968C19.0503 24.6092 18.3332 22.6547 17.7476 20.7673C19.6697 20.3373 21.7195 19.9857 23.8553 19.7189C23.1404 20.8339 22.4518 21.9658 21.79 23.1131ZM23.9166 40.3107C21.71 40.0644 19.6295 39.731 17.7079 39.3126C18.3026 37.3915 19.0355 35.3955 19.8916 33.3652C20.5007 34.542 21.1375 35.7042 21.8013 36.851C22.4839 38.03 23.1908 39.1847 23.9166 40.3107ZM33.7961 48.4765C32.4318 47.005 31.0713 45.3768 29.7426 43.6257C31.0326 43.6763 32.3476 43.7021 33.6842 43.7021C35.0574 43.7021 36.4147 43.6713 37.7508 43.6118C36.4389 45.3944 35.1145 47.025 33.7961 48.4765ZM47.5324 33.2615C48.4329 35.3142 49.1918 37.2997 49.7945 39.1879C47.8413 39.6336 45.7324 39.9926 43.5103 40.2592C44.2223 39.1304 44.9119 37.9875 45.5784 36.8313C46.2562 35.656 46.9077 34.4658 47.5324 33.2615ZM43.0855 35.3934C42.065 37.1661 40.9871 38.9051 39.8537 40.6079C37.8004 40.7534 35.7426 40.8256 33.6842 40.8244C31.5876 40.8244 29.5484 40.7592 27.5847 40.6318C26.4216 38.9331 25.3232 37.191 24.2918 35.4092C23.2652 33.6369 22.3066 31.8262 21.4176 29.981C22.3044 28.1354 23.2603 26.3239 24.2834 24.5502L24.2832 24.5505C25.3057 22.7763 26.3954 21.0416 27.5497 19.3502C29.5532 19.1986 31.6076 19.1197 33.6839 19.1197C35.7697 19.1197 37.8271 19.1994 39.83 19.3521C40.9727 21.0409 42.0554 22.7696 43.0761 24.535C44.1024 26.3048 45.071 28.1075 45.9803 29.9402C45.0803 31.7917 44.1148 33.6105 43.0855 35.3934ZM49.0224 3.25548C51.2782 4.55653 52.1555 9.80311 50.7382 16.6834C50.6473 17.1227 50.5464 17.5692 50.4355 18.0228C47.6403 17.3776 44.6053 16.8978 41.4276 16.5997C39.5766 13.9636 37.6584 11.5671 35.7329 9.49232C36.2376 9.00589 36.7542 8.53206 37.2824 8.07127C42.2561 3.74311 46.9045 2.03416 49.0224 3.25548ZM33.6842 23.8968C37.0066 23.8968 39.7 26.5902 39.7 29.9126C39.7 33.235 37.0066 35.9284 33.6842 35.9284C30.3618 35.9284 27.6684 33.235 27.6684 29.9126C27.6684 26.5902 30.3618 23.8968 33.6842 23.8968Z" fill="#0288D1"/>
</svg>
