<svg width="90" height="90" viewBox="0 0 90 90" fill="none" xmlns="http://www.w3.org/2000/svg">
<path d="M6.76739 22.6272C-0.987373 33.7724 -0.0219825 48.2744 5.90185 60.1178C6.04247 60.4019 6.19013 60.681 6.33567 60.9601L6.6127 61.4938L6.78567 61.8011L7.09435 62.3537C7.27856 62.6777 7.467 63.0009 7.65966 63.3234L7.98239 63.8549C8.19614 64.1994 8.41481 64.5416 8.63841 64.8815L8.91825 65.3132C9.22692 65.7737 9.54263 66.2336 9.86888 66.685L9.8963 66.7201L10.0566 66.9367C10.3393 67.3258 10.628 67.7099 10.9229 68.0891L11.2491 68.504C11.5116 68.8335 11.7783 69.1614 12.0493 69.4877L12.3551 69.8533C12.72 70.2839 13.0918 70.7086 13.4703 71.1273L13.4935 71.1505L13.5364 71.1984C13.9083 71.6021 14.2862 72.0003 14.6698 72.393L15.0333 72.7593C15.331 73.0584 15.6326 73.3541 15.9383 73.6466L16.3088 73.9982C16.7161 74.3826 17.1296 74.7592 17.5491 75.1281L17.5688 75.1436L17.7847 75.3278C18.1559 75.6494 18.5316 75.9665 18.9118 76.2791L19.3786 76.6511C19.689 76.9 20.0021 77.1447 20.318 77.3852L20.82 77.7669C21.1688 78.0238 21.5201 78.2758 21.874 78.5228L22.2579 78.7949L22.3634 78.8702C22.6995 79.1015 23.0433 79.3244 23.3872 79.5473L23.8301 79.8426C24.3575 80.1759 24.8918 80.5056 25.4325 80.8241L25.8755 81.0737C26.2725 81.3034 26.6733 81.5282 27.0779 81.748C27.2972 81.8662 27.5222 81.978 27.743 82.0912C28.0292 82.2409 28.3133 82.3928 28.6043 82.5384L28.8033 82.6347L29.1556 82.8048C29.6061 83.0205 30.0608 83.2307 30.5197 83.4355L30.8079 83.5649C31.3343 83.7951 31.8647 84.0157 32.3991 84.2266L32.7865 84.3791C33.2815 84.5697 33.7836 84.7581 34.2877 84.9353L34.4761 85.0007C35.0295 85.1941 35.5878 85.3734 36.1503 85.5484L36.5546 85.6694C37.1269 85.8416 37.6929 86.0476 38.2829 86.1566C75.7868 92.9959 86.6811 63.6194 86.6811 63.6194C77.5313 75.5394 61.2905 78.6838 45.9026 75.183C45.3197 75.0515 44.7544 74.8694 44.1856 74.7013L43.7574 74.5712C43.2031 74.4013 42.6518 74.222 42.1036 74.0334L41.8765 73.9511C41.3877 73.7783 40.9015 73.5981 40.4183 73.4104L40.009 73.2494C39.4793 73.0408 38.9546 72.8226 38.4347 72.5948L38.1204 72.4555C37.6754 72.2545 37.2326 72.0485 36.7922 71.8375L36.4083 71.6533C36.0631 71.4852 35.7214 71.3066 35.3811 71.1309C35.1533 71.0106 34.9212 70.8974 34.6955 70.7723C34.2812 70.5491 33.8708 70.3189 33.4643 70.0818L33.0488 69.8498C32.5091 69.5312 31.9746 69.2037 31.4457 68.8675L31.0133 68.5792C30.6287 68.3326 30.2483 68.0797 29.8721 67.8205L29.505 67.5625C29.1428 67.3064 28.7832 67.0465 28.4265 66.7827L27.949 66.4213C27.6212 66.1721 27.2968 65.9185 26.9759 65.6605L26.5421 65.3125C26.1334 64.9775 25.7293 64.6369 25.3299 64.2909L25.197 64.1791C24.7667 63.7993 24.342 63.4132 23.9229 63.021L23.5636 62.6758C23.2536 62.3805 22.9484 62.083 22.6482 61.7779L22.2896 61.42C21.9086 61.0301 21.534 60.6339 21.166 60.2317L21.1104 60.1727C20.7226 59.7475 20.3426 59.3152 19.9707 58.8761L19.6725 58.5217C19.3946 58.1873 19.1211 57.8493 18.852 57.5078L18.5518 57.1337C18.23 56.7178 17.9143 56.2973 17.6047 55.8723C9.06169 44.2187 5.99184 28.1467 12.8199 14.9476M30.8403 13.2362C25.2315 21.3067 25.5366 32.1109 29.9115 40.6462C30.6444 42.0805 31.4731 43.4639 32.3921 44.7869C33.2323 45.9913 34.164 47.4243 35.2791 48.3918C35.6869 48.8385 36.1065 49.2741 36.5377 49.6982L36.8696 50.0252C37.2884 50.4333 37.717 50.8314 38.1549 51.2191L38.2069 51.2641L38.2196 51.2767C38.7095 51.7034 39.21 52.1177 39.7208 52.5191L40.0618 52.7849C40.5753 53.1805 41.0988 53.5629 41.6318 53.9317L41.6775 53.9662C41.9138 54.1293 42.1543 54.2812 42.394 54.4387L42.7336 54.663C43.1161 54.9091 43.504 55.1469 43.8973 55.3766L44.0625 55.4723C44.4029 55.6682 44.7457 55.8599 45.0912 56.0474L45.4575 56.238C45.6959 56.3624 45.9343 56.4897 46.1768 56.6106L46.2858 56.6598C46.7801 56.9031 47.2786 57.138 47.7877 57.3594L48.1196 57.4959C48.5267 57.6688 48.938 57.8376 49.35 57.9951L49.8774 58.1884C50.2522 58.3277 50.6283 58.4542 51.0073 58.5815L51.5185 58.7453C52.0578 58.9127 52.5908 59.1243 53.1526 59.2178C82.1093 64.0152 88.7947 41.7198 88.7947 41.7198C82.7689 50.3985 71.0984 54.5399 58.6454 51.3069C58.0948 51.1623 57.5479 51.0043 57.005 50.833L56.5121 50.6734C56.1273 50.5491 55.745 50.4173 55.3653 50.2783L54.8478 50.0856C54.4334 49.9267 54.0218 49.7607 53.6131 49.5878L53.2805 49.4472C52.7714 49.2255 52.2678 48.9913 51.7702 48.7448C51.515 48.6203 51.264 48.4888 51.0122 48.3594L50.5749 48.1344C50.2523 47.9595 49.9328 47.7791 49.6165 47.593L49.3873 47.463C48.9956 47.2345 48.6086 46.9982 48.2265 46.7542L47.8763 46.5208C47.6241 46.3577 47.3735 46.192 47.1247 46.0237C46.5939 45.6546 46.0721 45.2729 45.5595 44.879L45.2072 44.6012C39.7566 40.2981 35.4352 34.4158 33.3814 27.7466C31.2284 20.8307 31.6925 13.0668 35.4225 6.76538M51.0868 6.22046C47.7807 11.0861 47.4558 17.1287 49.7501 22.502C52.1696 28.2065 57.1266 32.6805 62.9126 34.8032C63.151 34.8911 63.3901 34.9698 63.6312 35.0521L63.9483 35.1526C64.2893 35.2595 64.6276 35.384 64.9798 35.4508C80.9689 38.5403 85.3058 27.246 86.4596 25.5831C82.6613 31.0527 76.2769 32.3655 68.4434 30.4642C67.8247 30.3144 67.1447 30.0909 66.5485 29.8792C65.7824 29.6074 65.0311 29.2955 64.2978 28.9448C62.9056 28.2756 61.5837 27.4691 60.3518 26.5373C53.3424 21.2181 48.9879 11.0727 53.5618 2.8103" fill="#0868AC"/>
</svg>
