<svg width="89" height="125" viewBox="0 0 89 125" fill="none" xmlns="http://www.w3.org/2000/svg">
<path d="M44.4458 124.684L8.22632 114.67L0.154785 24.5034H88.8454L80.7655 114.656L44.4458 124.684Z" fill="#264DE4"/>
<path d="M73.8481 108.915L80.7525 31.8757H44.5V117.019L73.8481 108.915Z" fill="#2965F1"/>
<path d="M18.6584 65.3172L19.6534 76.3757H44.5V65.3172H18.6584ZM16.6587 42.9346L17.6679 53.9931H44.5V42.9346H16.6587ZM44.5 94.0374L44.4514 94.0502L32.0859 90.7247L31.2954 81.9051H20.1495L21.7049 99.2687L44.4489 105.557L44.5 105.543V94.0374Z" fill="#EBEBEB"/>
<path d="M21.0278 0H34.4752V5.60111H26.6515V11.2022H34.4759V16.803H21.0278V0ZM37.165 0H50.6127V4.8705H42.7887V5.84453H50.6127V17.0467H37.1653V11.9321H44.9893V10.9581H37.1646L37.165 0ZM53.3025 0H66.7502V4.8705H58.9262V5.84453H66.7502V17.0467H53.3025V11.9321H61.1265V10.9581H53.3029L53.3025 0Z" fill="black"/>
<path d="M70.2707 65.3172L72.275 42.9346H44.4618V53.9931H60.107L59.0967 65.3172H44.4618V76.3757H58.134L56.8449 90.7178L44.4614 94.0468V105.552L67.2235 99.2687L67.3904 97.4003L69.9999 68.2867L70.2707 65.3172Z" fill="white"/>
</svg>
