<svg width="60" height="60" viewBox="0 0 60 60" fill="none" xmlns="http://www.w3.org/2000/svg">
<path d="M50.792 29.5987C50.792 28.3028 50.2772 27.06 49.3608 26.1436C48.4445 25.2273 47.2016 24.7125 45.9057 24.7125C45.7307 24.7125 45.5595 24.7212 45.392 24.7387L52.1045 4.94434H23.582L30.2832 24.7218C30.1857 24.7218 30.0864 24.7125 29.987 24.7125C28.8216 24.7136 27.695 25.131 26.8102 25.8894C25.9254 26.6479 25.3408 27.6975 25.1616 28.849C24.9824 30.0006 25.2205 31.1782 25.833 32.1696C26.4455 33.1611 27.392 33.9011 28.502 34.2562C27.4622 36.0456 26.1681 37.6744 24.6601 39.0918C22.6985 40.9701 20.3662 42.4179 17.8126 43.3425C16.3823 42.6641 15.2637 41.4669 14.6839 39.9939C14.1041 38.5209 14.1066 36.8825 14.6907 35.4112C14.8357 35.0737 14.9795 34.7337 15.122 34.3912C16.212 34.1347 17.1809 33.5119 17.8669 32.6268C18.5529 31.7417 18.9143 30.648 18.8908 29.5285C18.8672 28.409 18.4602 27.3314 17.7377 26.476C17.0151 25.6205 16.0209 25.0389 14.921 24.8284C13.8212 24.6179 12.6825 24.7913 11.6951 25.3195C10.7078 25.8477 9.9316 26.6988 9.49636 27.7305C9.06111 28.7623 8.99314 29.9121 9.30381 30.9879C9.61449 32.0637 10.285 33.0003 11.2032 33.6412C9.64086 36.4687 8.45038 39.4861 7.66136 42.6187C6.99761 46.6218 7.66136 50.8687 11.1207 53.2706C19.1832 58.86 27.9376 49.8056 37.1664 47.5312C40.5114 46.7062 44.1826 46.8393 47.1282 45.1312C48.1933 44.5261 49.1116 43.6935 49.8179 42.6926C50.5241 41.6918 51.0008 40.5474 51.2139 39.3412C51.4095 38.1925 51.3724 37.0162 51.1047 35.8822C50.8371 34.7481 50.3443 33.6793 49.6557 32.7393C50.3908 31.8609 50.7931 30.7516 50.792 29.6062V29.5987ZM34.8751 29.625V29.6081C34.8765 28.7672 34.6604 27.9403 34.2477 27.2076C33.8351 26.475 33.2399 25.8615 32.5201 25.4268L37.8526 14.625L43.1964 25.5262C42.526 25.9717 41.9763 26.5762 41.5965 27.2859C41.2166 27.9955 41.0184 28.7882 41.0195 29.5931V29.7L34.8751 29.625Z" fill="#99425B"/>
<path d="M51.986 29.5988C51.983 28.1823 51.4867 26.811 50.5823 25.7208C49.6779 24.6306 48.4219 23.8896 47.0304 23.625L53.7691 3.75H21.9166L28.6666 23.6644C27.4876 23.9269 26.4136 24.5348 25.5816 25.4103C24.7495 26.2858 24.1972 27.3894 23.995 28.5802C23.7928 29.771 23.95 30.995 24.4464 32.0962C24.9428 33.1973 25.756 34.1255 26.7822 34.7625C25.9326 36.021 24.9467 37.1817 23.8422 38.2237C22.1311 39.8626 20.1192 41.1551 17.9172 42.03C16.8849 41.4291 16.1024 40.4777 15.7122 39.3487C15.322 38.2198 15.35 36.9882 15.791 35.8781L15.866 35.7037L16.0047 35.3756C17.2538 34.9423 18.3277 34.1138 19.0638 33.0155C19.7999 31.9172 20.1581 30.609 20.0842 29.289C20.0102 27.9689 19.5082 26.7089 18.6541 25.6997C17.8 24.6905 16.6403 23.987 15.3506 23.6959C14.0609 23.4048 12.7115 23.5418 11.5067 24.0862C10.3018 24.6306 9.30715 25.5527 8.67329 26.713C8.03942 27.8733 7.80087 29.2085 7.99375 30.5165C8.18663 31.8244 8.80044 33.034 9.74223 33.9619C9.53848 34.3944 9.32661 34.8356 9.10661 35.2856C7.89092 37.5209 7.00667 39.921 6.48161 42.4106C5.60973 47.6606 7.01598 51.8663 10.4397 54.2381C12.2802 55.5544 14.4882 56.2583 16.751 56.25C20.7485 56.25 24.7929 54.2419 28.751 52.2769C31.5161 50.7726 34.4339 49.5676 37.4547 48.6825C38.5689 48.4261 39.6953 48.2265 40.8297 48.0844C43.2316 47.8911 45.5737 47.2367 47.7279 46.1569C48.9428 45.4629 49.9902 44.5103 50.7961 43.3665C51.6019 42.2227 52.1464 40.9157 52.391 39.5381C52.7891 37.1979 52.3297 34.7926 51.0972 32.7638C51.683 31.8123 51.9896 30.7161 51.986 29.5988ZM49.5991 29.5988C49.5991 30.3293 49.3825 31.0435 48.9766 31.6509C48.5707 32.2583 47.9938 32.7318 47.3189 33.0113C46.644 33.2909 45.9013 33.3641 45.1847 33.2215C44.4682 33.079 43.8101 32.7272 43.2935 32.2106C42.7769 31.694 42.4251 31.0359 42.2826 30.3194C42.1401 29.6028 42.2132 28.8602 42.4928 28.1852C42.7724 27.5103 43.2458 26.9334 43.8532 26.5275C44.4607 26.1216 45.1748 25.905 45.9054 25.905C46.8845 25.9065 47.8232 26.2961 48.5156 26.9885C49.208 27.6809 49.5976 28.6196 49.5991 29.5988ZM50.4372 6.13688L44.486 23.6869C44.2308 23.7474 43.9802 23.8257 43.736 23.9213L37.8579 11.9212L31.961 23.85C31.7046 23.7599 31.4421 23.6884 31.1754 23.6362L25.2447 6.13688H50.4372ZM29.9866 25.905C30.7172 25.905 31.4313 26.1216 32.0387 26.5275C32.6462 26.9334 33.1196 27.5103 33.3992 28.1852C33.6788 28.8602 33.7519 29.6028 33.6094 30.3194C33.4669 31.0359 33.1151 31.694 32.5985 32.2106C32.0819 32.7272 31.4237 33.079 30.7072 33.2215C29.9907 33.3641 29.248 33.2909 28.5731 33.0113C27.8981 32.7318 27.3212 32.2583 26.9154 31.6509C26.5095 31.0435 26.2929 30.3293 26.2929 29.5988C26.2929 28.6191 26.682 27.6796 27.3747 26.9869C28.0674 26.2942 29.007 25.905 29.9866 25.905ZM14.006 25.9406C14.7365 25.9406 15.4507 26.1573 16.0581 26.5631C16.6656 26.969 17.139 27.5459 17.4186 28.2208C17.6981 28.8958 17.7713 29.6385 17.6288 30.355C17.4862 31.0715 17.1344 31.7297 16.6179 32.2462C16.1013 32.7628 15.4431 33.1146 14.7266 33.2571C14.0101 33.3997 13.2674 33.3265 12.5924 33.047C11.9175 32.7674 11.3406 32.2939 10.9347 31.6865C10.5289 31.0791 10.3122 30.3649 10.3122 29.6344C10.3122 28.6551 10.7011 27.7158 11.3934 27.0232C12.0858 26.3305 13.0267 25.9411 14.006 25.9406ZM50.0379 39.1294C49.8525 40.1629 49.4422 41.1431 48.836 42.0004C48.2297 42.8578 47.4424 43.5714 46.5297 44.0906C44.6363 45.0107 42.5858 45.5642 40.4866 45.7219C39.3016 45.8925 38.0772 46.0688 36.8791 46.365C33.6897 47.2888 30.6093 48.5542 27.6916 50.1394C21.7591 53.085 16.6291 55.6294 11.8066 52.2825C8.26848 49.83 8.43161 45.2925 8.84411 42.8062C9.32945 40.5428 10.1397 38.3614 11.2497 36.33L11.756 35.2819C12.2602 35.4814 12.7885 35.6138 13.3272 35.6756C12.8481 37.3612 12.9805 39.1619 13.7011 40.7592C14.4217 42.3565 15.684 43.6475 17.2647 44.4037L17.7241 44.64L18.2097 44.4656C20.9199 43.4896 23.3956 41.9567 25.4772 39.9656C26.8538 38.6723 28.0621 37.2108 29.0735 35.6156C30.3693 35.8127 31.6942 35.5856 32.8504 34.968C34.0065 34.3504 34.932 33.3756 35.4888 32.189C36.0455 31.0023 36.2036 29.6675 35.9396 28.3836C35.6755 27.0997 35.0034 25.9356 34.0235 25.065L37.8447 17.3381L41.7054 25.2131C40.6069 26.2717 39.947 27.7049 39.8566 29.2277C39.7663 30.7505 40.2523 32.2516 41.2179 33.4327C42.1835 34.6137 43.5581 35.3882 45.0685 35.6023C46.5789 35.8163 48.1146 35.4543 49.3704 34.5881C50.0671 35.9927 50.3002 37.5821 50.036 39.1275L50.0379 39.1294Z" fill="white"/>
</svg>
