<svg width="100" height="89" viewBox="0 0 100 89" fill="none" xmlns="http://www.w3.org/2000/svg">
<path d="M82.2199 28.8172C81.1557 28.4524 80.0824 28.1144 79.0012 27.8035C79.1828 27.0618 79.35 26.3291 79.4984 25.6093C81.9352 13.7891 80.3422 4.26647 74.9012 1.13117C69.6844 -1.87453 61.1527 1.25959 52.5363 8.75316C51.6871 9.49298 50.8568 10.2541 50.0461 11.0359C49.5034 10.5161 48.9511 10.0063 48.3895 9.50693C39.359 1.49459 30.3074 -1.88234 24.8723 1.26194C19.6602 4.27701 18.1168 13.2289 20.3105 24.4312C20.5288 25.5407 20.7752 26.6444 21.0496 27.7414C19.7684 28.1052 18.532 28.4924 17.3488 28.9046C6.76133 32.5934 0 38.3742 0 44.3703C0 50.5633 7.25859 56.7749 18.2859 60.5414C19.18 60.8454 20.0814 61.1272 20.9895 61.3865C20.6946 62.568 20.4328 63.7575 20.2043 64.9535C18.1129 75.9614 19.7461 84.7018 24.9441 87.6977C30.3129 90.7916 39.3238 87.6118 48.0977 79.9473C48.8091 79.3241 49.5049 78.6834 50.1844 78.0256C51.0623 78.8721 51.9637 79.694 52.8875 80.4903C61.3867 87.7984 69.7805 90.7495 74.9734 87.7453C80.3371 84.6424 82.0805 75.2529 79.8172 63.8293C79.6389 62.9344 79.439 62.0438 79.2176 61.1585C79.8504 60.9712 80.4715 60.7783 81.077 60.5777C92.541 56.7823 100 50.646 100 44.3703C100 38.3523 93.0203 32.5326 82.2199 28.8172ZM79.7336 56.5259C79.1862 56.7065 78.6263 56.8815 78.0539 57.0509C76.7883 53.0471 75.0805 48.7899 72.9902 44.391C74.9848 40.0972 76.627 35.8943 77.857 31.9166C78.8801 32.2125 79.8727 32.5244 80.8297 32.8534C90.0836 36.0371 95.7281 40.7436 95.7281 44.3703C95.7281 48.2332 89.632 53.2481 79.7336 56.5259ZM75.6266 64.6584C76.6273 69.7096 76.7699 74.2767 76.107 77.8472C75.5117 81.0555 74.3141 83.1942 72.8328 84.0511C69.6816 85.874 62.9422 83.5046 55.6738 77.2543C54.8146 76.5139 53.9762 75.7498 53.1594 74.9629C55.9773 71.8834 58.7934 68.3035 61.5418 64.3274C66.3762 63.8988 70.9434 63.1977 75.0852 62.241C75.2896 63.0639 75.4701 63.8697 75.6266 64.6584ZM34.0922 83.7361C31.0133 84.8224 28.5609 84.8536 27.0785 83.9995C23.9242 82.1817 22.6129 75.1636 24.4016 65.7499C24.6142 64.6375 24.8577 63.5312 25.1316 62.4323C29.2277 63.3379 33.7617 63.989 38.6074 64.3817C41.3746 68.2723 44.2719 71.8483 47.1918 74.9797C46.5712 75.5797 45.936 76.1643 45.2867 76.7332C41.4066 80.1222 37.5188 82.5267 34.0922 83.7361ZM19.668 56.5021C14.7918 54.8364 10.7648 52.6719 8.00469 50.3099C5.52422 48.1876 4.27227 46.0801 4.27227 44.3703C4.27227 40.7315 9.70078 36.0902 18.7551 32.9358C19.8539 32.5532 21.0039 32.1922 22.1973 31.8533C23.4488 35.9208 25.0902 40.1737 27.0711 44.4742C25.0645 48.8383 23.3996 53.1591 22.1359 57.2746C21.3071 57.0373 20.4842 56.7797 19.668 56.5021ZM24.5031 23.6111C22.6238 14.0135 23.8719 6.77369 27.0129 4.95661C30.3582 3.02125 37.7559 5.78064 45.5531 12.6992C46.0616 13.1514 46.5618 13.6127 47.0535 14.083C44.148 17.2007 41.2773 20.7502 38.5348 24.6178C33.8316 25.0534 29.3297 25.7529 25.1906 26.6902C24.9356 25.6699 24.7063 24.6429 24.5031 23.6111ZM67.6387 34.2556C66.661 32.5681 65.6471 30.9018 64.5977 29.2579C67.7883 29.6611 70.8453 30.1963 73.716 30.8505C72.8543 33.6111 71.7801 36.497 70.5156 39.4558C69.5914 37.7034 68.6322 35.9697 67.6387 34.2556ZM50.048 17.1344C52.0184 19.2677 53.9918 21.6492 55.9328 24.2333C51.9953 24.0475 48.0512 24.0467 44.1137 24.231C46.0566 21.6707 48.0469 19.2922 50.048 17.1344ZM32.3445 34.2844C31.3634 35.9847 30.4221 37.7077 29.5215 39.4519C28.2777 36.5036 27.2133 33.6045 26.3441 30.8049C29.1973 30.167 32.2398 29.6455 35.4102 29.2497C34.349 30.9036 33.3269 32.5826 32.3445 34.2844ZM35.5012 59.7943C32.2258 59.4289 29.1375 58.9343 26.2852 58.3137C27.168 55.4641 28.2559 52.5033 29.5266 49.4917C30.4308 51.2372 31.376 52.9613 32.3613 54.6623C33.3746 56.4111 34.4238 58.124 35.5012 59.7943ZM50.166 71.9069C48.141 69.724 46.1215 67.3089 44.1492 64.7115C46.0641 64.7865 48.016 64.8247 50 64.8247C52.0383 64.8247 54.0531 64.7791 56.0363 64.6908C54.0891 67.3351 52.123 69.7537 50.166 71.9069ZM70.5559 49.3379C71.8926 52.3827 73.0191 55.3279 73.9137 58.1286C71.0145 58.7899 67.884 59.3223 64.5855 59.7178C65.6425 58.0434 66.666 56.3482 67.6555 54.6331C68.6615 52.8898 69.6285 51.1243 70.5559 49.3379ZM63.9551 52.5002C62.4402 55.1297 60.8403 57.7093 59.1578 60.235C56.11 60.4508 53.0555 60.558 50 60.5562C46.8879 60.5562 43.8609 60.4594 40.9461 60.2705C39.2196 57.7508 37.5891 55.1666 36.0582 52.5236C34.5343 49.8947 33.1114 47.2088 31.7918 44.4718C33.1081 41.7342 34.5271 39.0471 36.0457 36.4162L36.0453 36.4165C37.5632 33.7848 39.1806 31.2117 40.8941 28.7028C43.868 28.478 46.9176 28.3609 49.9996 28.3609C53.0957 28.3609 56.1496 28.4792 59.1227 28.7056C60.8189 31.2107 62.426 33.775 63.941 36.3935C65.4645 39.0188 66.9022 41.6928 68.252 44.4113C66.9161 47.1576 65.4829 49.8556 63.9551 52.5002ZM72.7676 4.82896C76.116 6.75886 77.4184 14.5413 75.3145 24.747C75.1796 25.3986 75.0298 26.0609 74.8652 26.7339C70.716 25.7768 66.2109 25.0651 61.4941 24.6229C58.7465 20.7127 55.8992 17.1578 53.041 14.0803C53.7901 13.3587 54.557 12.6559 55.341 11.9724C62.7238 5.55228 69.6238 3.01734 72.7676 4.82896ZM50 35.4469C54.9316 35.4469 58.9297 39.4422 58.9297 44.3703C58.9297 49.2985 54.9316 53.2938 50 53.2938C45.0684 53.2938 41.0703 49.2985 41.0703 44.3703C41.0703 39.4422 45.0684 35.4469 50 35.4469Z" fill="#0288D1"/>
</svg>
