<svg width="43" height="43" viewBox="0 0 43 43" fill="none" xmlns="http://www.w3.org/2000/svg">
<path d="M7.61523 15.7891H41.0981V40.5376H7.61523V15.7891Z" fill="white"/>
<path d="M0.503906 21.4697V42.4658H42.4961V0.473633H0.503906V21.4697ZM34.3429 19.79C35.3487 20.0234 36.2628 20.5495 36.9699 21.3018C37.3592 21.7071 37.6976 22.1583 37.9777 22.6455C37.9777 22.6993 36.1637 23.9254 35.0584 24.6107C35.0181 24.6376 34.8569 24.4629 34.6788 24.1975C34.4771 23.8494 34.1904 23.558 33.8456 23.3507C33.5007 23.1433 33.109 23.0267 32.7069 23.0117C31.4337 22.9243 30.614 23.5929 30.6207 24.6914C30.6105 24.9648 30.6731 25.2361 30.8021 25.4775C31.0809 26.0586 31.6016 26.4046 33.2343 27.1101C36.2409 28.4035 37.5276 29.2568 38.3271 30.4695C39.2207 31.8132 39.4189 33.9834 38.8142 35.5892C38.1423 37.3361 36.4962 38.5219 34.1682 38.915C33.1049 39.0368 32.0306 39.0255 30.9701 38.8814C29.3447 38.6134 27.8475 37.8331 26.697 36.6541C26.3106 36.2275 25.5581 35.1155 25.6052 35.0349C25.7276 34.9435 25.8567 34.8615 25.9915 34.7896L27.5469 33.9296L28.7529 33.2309L29.0048 33.6038C29.4302 34.2119 29.9713 34.7302 30.5972 35.1289C31.9409 35.8344 33.7752 35.737 34.6822 34.9207C34.9867 34.6215 35.1767 34.2251 35.2191 33.8003C35.2614 33.3755 35.1535 32.9494 34.914 32.596C34.578 32.129 33.9062 31.736 32.0283 30.9163C29.8615 29.9824 28.9276 29.4046 28.0743 28.4841C27.5418 27.8766 27.1485 27.16 26.922 26.3845C26.7532 25.4984 26.7283 24.591 26.8481 23.697C27.2949 21.6041 28.8637 20.1428 31.1548 19.7094C32.2159 19.5783 33.2906 19.6078 34.3429 19.7968V19.79ZM24.4865 21.5504V23.2703H19.0342V38.8007H15.1676V23.267H9.70187V21.5873C9.68473 21.0081 9.69819 20.4283 9.74219 19.8505C9.76906 19.8203 13.1016 19.8203 17.1328 19.8203H24.4663L24.4865 21.5504Z" fill="#007ACC"/>
</svg>
