<svg width="88" height="124" viewBox="0 0 88 124" fill="none" xmlns="http://www.w3.org/2000/svg">
<path d="M43.9462 123.687L8.13368 113.752L0.152832 24.3074H87.8469L79.8578 113.739L43.9462 123.687Z" fill="#B2BAE5"/>
<path d="M73.0183 108.044L79.8452 31.6207H44V116.083L73.0183 108.044Z" fill="#B2BAE5"/>
<path d="M18.4489 64.7946L19.4327 75.7647H44.0002V64.7946H18.4489ZM16.4717 42.5911L17.4696 53.5611H44.0002V42.5911H16.4717ZM44.0002 93.2851L43.9521 93.2978L31.7256 89.9989L30.9439 81.2499H19.9233L21.4612 98.4745L43.9497 104.712L44.0002 104.699V93.2851Z" fill="#EBEBEB"/>
<path d="M20.7915 0H34.0878V5.5563H26.352V11.1126H34.0884V16.6686H20.7915V0ZM36.7473 0H50.0439V4.83153H42.3078V5.79777H50.0439V16.9104H36.7477V11.8367H44.4838V10.8704H36.747L36.7473 0ZM52.7035 0H66.0001V4.83153H58.264V5.79777H66.0001V16.9104H52.7035V11.8367H60.4396V10.8704H52.7039L52.7035 0Z" fill="#B2BAE5"/>
<path d="M69.4812 64.7946L71.4629 42.5911H43.9623V53.5611H59.4317L58.4328 64.7946H43.9623V75.7647H57.4809L56.2063 89.992L43.9619 93.2944V104.707L66.4683 98.4745L66.6333 96.6211L69.2134 67.7404L69.4812 64.7946Z" fill="white"/>
</svg>
