<svg width="99" height="99" viewBox="0 0 99 99" fill="none" xmlns="http://www.w3.org/2000/svg">
<path d="M19.0327 88.636C16.9696 88.2306 15.0073 87.4204 13.2591 86.2522C11.511 85.084 10.0117 83.5809 8.84776 81.8299C7.68387 80.0789 6.87849 78.1146 6.47815 76.0505C6.07782 73.9865 6.09046 71.8635 6.51536 69.8043C7.56414 65.3834 7.34758 65.6401 30.164 41.775L51.6656 19.2865L57.7602 25.0965L32.9793 50.9665L53.7074 50.521L68.3532 35.244L74.4232 41.085L52.903 63.5116C33.1495 84.0851 31.1942 86.028 29.1864 87.0241C26.0777 88.6563 22.5205 89.2268 19.0574 88.6484L19.0327 88.636ZM79.5897 37.0755C79.0236 36.7352 73.2073 31.3088 66.664 25.0099L54.7593 13.5661L54.7222 11.8275C54.6529 11.3331 54.6885 10.8297 54.8265 10.35C54.9646 9.8703 55.202 9.42501 55.5235 9.04308C56.007 8.39197 56.6728 7.89892 57.4366 7.62632C58.2004 7.35372 59.028 7.31382 59.8145 7.51167C68.9717 15.2497 77.6308 23.5585 85.7401 32.3885C85.9737 33.1933 85.9579 34.05 85.6948 34.8457C85.4317 35.6413 84.9336 36.3385 84.2663 36.8454C83.5989 37.3523 82.7936 37.645 81.9566 37.685C81.1195 37.725 80.29 37.5103 79.5774 37.0694L79.5897 37.0755Z" fill="#B2BAE5"/>
<path d="M12.6378 71.7286C11.5457 78.7824 15.6078 83.5715 23.2896 82.5258C24.0785 81.6967 33.2329 72.1401 53.7971 50.5736C43.4516 50.7963 43.5877 50.3446 33.2267 50.5736C12.5326 72.0256 12.1212 71.871 12.6378 71.7286Z" fill="#B2BAE5"/>
<path d="M60.6374 29.5113C66.7778 29.2869 72.8468 30.8888 78.0767 34.1143C83.3065 37.3397 87.4623 42.0438 90.0182 47.6315C92.574 53.2192 93.4153 59.4395 92.4354 65.5053C91.4555 71.5712 88.6985 77.2102 84.5132 81.7089C80.3279 86.2076 74.9024 89.364 68.923 90.7787C62.9435 92.1933 56.6788 91.8028 50.9214 89.6564C45.164 87.51 40.1725 83.7042 36.5784 78.7205C32.9843 73.7368 30.949 67.7991 30.7301 61.6585C30.445 53.4328 33.4332 45.4296 39.0394 39.4035C44.6456 33.3774 52.4125 29.8201 60.6374 29.5113Z" fill="black"/>
<path d="M78.4111 50.7004L72.5639 65.3741L66.6858 50.7004H61.875L70.1291 70.7294L64.251 84.8554L68.4616 85.6846L82.9682 50.7004H78.4111Z" fill="#B2BAE5"/>
<path d="M52.7144 54.4129C53.8732 54.3902 55.0121 54.716 55.9835 55.3481C56.9549 55.9803 57.714 56.8897 58.1625 57.9583L58.243 58.1347L62.3484 56.7518L62.2587 56.5445C61.4781 54.6666 60.1488 53.068 58.4448 51.958C56.7408 50.8479 54.7414 50.2781 52.7082 50.323C51.3223 50.2798 49.9421 50.5177 48.6505 51.0222C47.359 51.5268 46.1831 52.2877 45.1935 53.2589C44.23 54.2189 43.4656 55.3597 42.9439 56.6158C42.4223 57.8719 42.1538 59.2186 42.1538 60.5788C42.1538 61.9389 42.4223 63.2856 42.9439 64.5417C43.4656 65.7978 44.23 66.9386 45.1935 67.8986C46.1831 68.8698 47.359 69.6307 48.6505 70.1353C49.9421 70.6399 51.3223 70.8777 52.7082 70.8345C54.7411 70.8797 56.7402 70.3103 58.4442 69.2008C60.1481 68.0913 61.4776 66.4934 62.2587 64.6161L62.3484 64.4057L58.2368 63.0197L58.1594 63.2053C57.7201 64.2805 56.9623 65.1955 55.9879 65.8276C55.0135 66.4597 53.8691 66.7786 52.7082 66.7415C51.913 66.7595 51.1226 66.6132 50.3864 66.3119C49.6502 66.0106 48.9841 65.5608 48.4296 64.9904C47.8611 64.4115 47.4146 63.7244 47.1164 62.9698C46.8183 62.2152 46.6747 61.4085 46.694 60.5973C46.6766 59.7809 46.821 58.9691 47.1189 58.2087C47.4168 57.4483 47.8623 56.7545 48.4296 56.1671C48.9821 55.5935 49.6477 55.141 50.3842 54.8379C51.1207 54.5349 51.9121 54.3881 52.7082 54.4067L52.7144 54.4129Z" fill="#B2BAE5"/>
<path d="M75.6328 82.2938C81.1191 78.8433 85.1038 73.4524 86.7929 67.1952C88.482 60.9381 87.7515 54.2743 84.747 48.5317L88.4781 46.6012C91.9691 53.2707 92.8188 61.0108 90.8578 68.2788C88.8969 75.5468 84.2694 81.8091 77.8974 85.8176L75.6328 82.2938Z" fill="url(#paint0_linear_1_344)"/>
<path d="M32.7039 68.4585C31.9898 65.8749 31.6286 63.2066 31.6304 60.5261C31.6714 54.4641 33.5398 48.5555 36.9916 43.572C40.4434 38.5886 45.3181 34.7622 50.9787 32.5927L52.4977 36.4877C47.6266 38.3553 43.4317 41.6482 40.4608 45.9366C37.4899 50.2249 35.8809 55.3093 35.8441 60.5261C35.8456 62.8324 36.1577 65.128 36.7722 67.3509L32.7132 68.4585H32.7039Z" fill="#B2BAE5"/>
<path d="M50.7744 32.6885C57.7378 29.9894 65.4522 29.9535 72.4404 32.5879C79.4286 35.2224 85.1995 40.3419 88.6481 46.9662L84.9016 48.8719C81.9308 43.174 76.9648 38.7703 70.9524 36.5023C64.9401 34.2343 58.3028 34.261 52.3089 36.5774L50.7744 32.6885Z" fill="#B2BAE5"/>
<path d="M65.0647 82.8785L64.0407 85.3535C63.9417 85.5922 63.7769 85.7978 63.5654 85.9462C63.354 86.0947 63.1046 86.1799 62.8465 86.1919C62.5031 86.1919 62.1535 86.2136 61.8008 86.2136C55.927 86.2069 50.2265 84.2223 45.6185 80.5797C41.0106 76.9371 37.7636 71.8488 36.4011 66.1351L32.2896 67.0633C33.8114 73.6459 37.5099 79.5223 42.7866 83.7417C48.1757 88.0375 54.8596 90.3839 61.7513 90.3994H61.8132C62.2185 90.3994 62.6176 90.3994 63.0198 90.3747C64.0821 90.3304 65.1096 89.9829 65.9807 89.3732C66.8519 88.7636 67.5303 87.9173 67.9357 86.9344L69.2784 83.7169L65.0647 82.8878V82.8785Z" fill="url(#paint1_linear_1_344)"/>
<defs>
<linearGradient id="paint0_linear_1_344" x1="90.5201" y1="52.6326" x2="81.3508" y2="85.942" gradientUnits="userSpaceOnUse">
<stop stop-color="#B2BAE5"/>
<stop offset="1"/>
</linearGradient>
<linearGradient id="paint1_linear_1_344" x1="36.8381" y1="69.7479" x2="63.9757" y2="91.133" gradientUnits="userSpaceOnUse">
<stop stop-color="#B2BAE5"/>
<stop offset="1" stop-color="#D2D2D2"/>
</linearGradient>
</defs>
</svg>
