<svg width="94" height="95" viewBox="0 0 94 95" fill="none" xmlns="http://www.w3.org/2000/svg">
<path d="M33.4141 94.7344C42.1531 94.7344 49.2031 87.6844 49.2031 78.9453V63.1562H33.4141C24.675 63.1562 17.625 70.2063 17.625 78.9453C17.625 87.6844 24.675 94.7344 33.4141 94.7344Z" fill="#B2BAE5"/>
<path d="M17.625 47.3672C17.625 38.6281 24.675 31.5781 33.4141 31.5781H49.2031V63.1562H33.4141C24.675 63.1562 17.625 56.1062 17.625 47.3672Z" fill="#B2BAE5"/>
<path d="M17.625 15.7891C17.625 7.05 24.675 0 33.4141 0H49.2031V31.5781H33.4141C24.675 31.5781 17.625 24.5281 17.625 15.7891Z" fill="#B2BAE5"/>
<path d="M49.2031 0H64.9922C73.7312 0 80.7812 7.05 80.7812 15.7891C80.7812 24.5281 73.7312 31.5781 64.9922 31.5781H49.2031V0Z" fill="#B2BAE5"/>
<path d="M80.7812 47.3672C80.7812 56.1062 73.7312 63.1562 64.9922 63.1562C56.2531 63.1562 49.2031 56.1062 49.2031 47.3672C49.2031 38.6281 56.2531 31.5781 64.9922 31.5781C73.7312 31.5781 80.7812 38.6281 80.7812 47.3672Z" fill="#B2BAE5"/>
</svg>
