<svg width="43" height="60" viewBox="0 0 43 60" fill="none" xmlns="http://www.w3.org/2000/svg">
<path d="M42.4743 11.7617L38.6115 55.0349L21.2481 59.8485L3.93251 55.0415L0.0737305 11.7617H42.4743Z" fill="#B2BAE5"/>
<path d="M21.2744 56.1689L35.3049 52.2792L38.6058 15.3003H21.2744V56.1689Z" fill="#B2BAE5"/>
<path d="M13.7649 25.9167H21.2741V20.6086H7.96387L8.09085 22.0327L9.39556 36.6604H21.2741V31.3523H14.2501L13.7649 25.9167ZM14.9613 39.3145H9.63273L10.3763 47.649L21.2496 50.6673L21.2741 50.6607V45.138L21.2508 45.1442L15.3392 43.5479L14.9613 39.3145Z" fill="#EBEBEB"/>
<path d="M4.01904 0H6.71655V2.6651H9.1842V0H11.8819V8.07058H9.18436V5.36809H6.71672V8.07058H4.01921L4.01904 0ZM15.429 2.6764H13.0546V0H20.5029V2.6764H18.127V8.07058H15.4295V2.6764H15.429ZM21.685 0H24.4977L26.2278 2.83579L27.9564 0H30.7702V8.07058H28.0837V4.07036L26.2278 6.93989H26.1813L24.3243 4.07036V8.07058H21.685V0ZM32.1127 0H34.811V5.40299H38.6045V8.07058H32.1125L32.1127 0Z" fill="#B2BAE5"/>
<path d="M21.256 36.6604H27.7924L27.1761 43.5446L21.2559 45.1425V50.6648L32.1378 47.649L32.2176 46.7522L33.4651 32.7777L33.5946 31.3523H21.256V36.6604ZM21.256 25.9038V25.9167H34.0776L34.1839 24.7237L34.4259 22.0327L34.5528 20.6086H21.256V25.9038Z" fill="white"/>
</svg>
