<svg width="89" height="125" viewBox="0 0 89 125" fill="none" xmlns="http://www.w3.org/2000/svg">
<path d="M88.8454 24.5034L80.7655 114.656L44.4458 124.684L8.22632 114.67L0.154785 24.5034H88.8454Z" fill="#B2BAE5"/>
<path d="M44.5 117.019L73.8481 108.915L80.7526 31.8757H44.5V117.019Z" fill="#B2BAE5"/>
<path d="M28.7929 53.9931H44.5V42.9346H16.6587L16.9243 45.9013L19.6534 76.3757H44.5V65.3172H29.8077L28.7929 53.9931ZM31.2954 81.9051H20.1495L21.7049 99.2687L44.4489 105.557L44.5 105.543V94.0374L44.4514 94.0502L32.0859 90.7247L31.2954 81.9051Z" fill="#EBEBEB"/>
<path d="M8.40625 0H14.0487V5.55229H19.2104V0H24.8532V16.8137H19.2107V11.1835H14.0491V16.8137H8.4066L8.40625 0ZM32.2729 5.57583H27.3062V0H42.8861V5.57583H37.9164V16.8137H32.2739V5.57583H32.2729ZM45.3586 0H51.242L54.8611 5.90789L58.4767 0H64.3626V16.8137H58.743V8.47992L54.8611 14.4581H54.7638L50.8794 8.47992V16.8137H45.3586V0ZM67.1706 0H72.8148V11.2562H80.7497V16.8137H67.1702L67.1706 0Z" fill="#B2BAE5"/>
<path d="M44.4618 76.3757H58.134L56.8449 90.7178L44.4614 94.0468V105.552L67.2235 99.2687L67.3904 97.4003L69.9999 68.2867L70.2707 65.3172H44.4618V76.3757ZM44.4618 53.9661V53.9931H71.281L71.5035 51.5076L72.0097 45.9013L72.275 42.9346H44.4618V53.9661Z" fill="white"/>
</svg>
