<svg width="89" height="89" viewBox="0 0 89 89" fill="none" xmlns="http://www.w3.org/2000/svg">
<path d="M0 0H89V89H0V0Z" fill="#B2BAE5"/>
<path d="M23.4012 74.3748L30.2118 70.253C31.526 72.5827 32.7212 74.5539 35.5883 74.5539C38.3365 74.5539 40.0696 73.4789 40.0696 69.2973V40.8597H48.4332V69.4155C48.4332 78.0781 43.3553 82.0212 35.9468 82.0212C29.2561 82.0212 25.3724 78.5561 23.4009 74.3741M52.976 73.4786L59.7859 69.5358C61.5788 72.4634 63.9087 74.614 68.0306 74.614C71.4963 74.614 73.706 72.8813 73.706 70.4915C73.706 67.624 71.4358 66.6082 67.6123 64.936L65.5219 64.039C59.4876 61.4709 55.485 58.2446 55.485 51.434C55.485 45.1609 60.2643 40.3813 67.7323 40.3813C73.0493 40.3813 76.8728 42.2337 79.6207 47.0727L73.1084 51.255C71.6743 48.6862 70.1217 47.6707 67.7319 47.6707C65.2823 47.6707 63.729 49.224 63.729 51.255C63.729 53.764 65.2823 54.7802 68.8667 56.3336L70.9575 57.2295C78.067 60.2767 82.0696 63.383 82.0696 70.3723C82.0696 77.9004 76.1553 82.0222 68.2096 82.0222C60.4433 82.0222 55.4249 78.3183 52.9757 73.4789" fill="white"/>
</svg>
