<svg width="91" height="91" viewBox="0 0 91 91" fill="none" xmlns="http://www.w3.org/2000/svg">
<path d="M84.3682 44.8175C84.3617 42.208 83.4925 39.6738 81.896 37.6096C80.2995 35.5454 78.0653 34.067 75.5412 33.4046L86.8707 0H30.7275L42.0873 33.5108C39.6362 34.2278 37.483 35.7187 35.9494 37.7608C34.4158 39.8029 33.5841 42.2864 33.5788 44.8403C33.5833 46.7236 34.0374 48.5786 34.9033 50.2511C35.7692 51.9236 37.022 53.3652 38.5573 54.4559C37.3473 56.1608 35.9704 57.7409 34.4471 59.1728C31.6465 61.8451 28.366 63.9639 24.7784 65.4176C21.6161 63.2829 20.2473 59.5178 21.4834 56.1432C24.1735 55.3077 26.4755 53.5367 27.9731 51.151C29.4706 48.7652 30.0646 45.9222 29.6477 43.1364C29.2307 40.3506 27.8303 37.8061 25.6999 35.9633C23.5695 34.1205 20.8498 33.1012 18.033 33.0899C14.9038 33.0939 11.9038 34.3388 9.69112 36.5515C7.47841 38.7642 6.23354 41.7641 6.22953 44.8933C6.22953 48.1087 7.54524 51.0586 9.65341 53.1668C9.47141 53.5308 9.28688 53.9087 9.09982 54.3005C7.3367 57.9367 5.3347 62.0468 4.56878 66.6575C3.04074 75.8788 5.54324 83.2802 11.5796 87.47C14.8474 89.7726 18.7485 91.0058 22.746 91C29.6734 91 36.7069 87.523 43.5054 84.1485C48.3549 81.7521 53.3599 79.2496 58.2853 78.0363C60.1053 77.5889 62.0012 77.3272 64.0032 77.0353C68.0602 76.4552 72.25 75.8523 76.0152 73.6607C78.1657 72.429 80.0206 70.7416 81.4498 68.7169C82.8791 66.6923 83.848 64.3795 84.2886 61.9407C84.9483 58.1718 84.2886 54.3801 82.6051 51.0586C83.735 49.2386 84.3682 47.1115 84.3682 44.8175ZM79.2305 44.8175C79.2305 48.4765 76.254 51.4529 72.5951 51.4529C71.2172 51.4491 69.8746 51.0171 68.7529 50.2168C67.6313 49.4165 66.7861 48.2873 66.3343 46.9856C65.8825 45.6839 65.8464 44.274 66.231 42.9509C66.6156 41.6277 67.4019 40.4568 68.4811 39.6002L68.5077 39.5736C68.7225 39.4144 68.95 39.2564 69.1902 39.0997C69.1902 39.0997 69.2205 39.0997 69.2205 39.0731C69.3267 39.02 69.429 38.9404 69.5352 38.8835C69.5617 38.8835 69.5883 38.8608 69.6148 38.8608C69.7261 38.8077 69.8486 38.7546 69.9826 38.7015C70.1191 38.651 70.243 38.5992 70.3542 38.5461C70.3807 38.5461 70.4035 38.5195 70.43 38.5195C70.5362 38.493 70.6424 38.4399 70.7485 38.4134C70.7751 38.4134 70.8244 38.3868 70.8547 38.3868C70.9836 38.3603 71.0898 38.3338 71.2225 38.311H71.249L71.6434 38.2276C71.6699 38.2276 71.7192 38.2276 71.7495 38.201C71.8557 38.201 71.9581 38.1745 72.0642 38.1745H72.197C72.3297 38.1745 72.4624 38.148 72.6178 38.148H72.9591C73.0652 38.148 73.1487 38.148 73.251 38.1745H73.3041C73.5139 38.1973 73.725 38.2326 73.9373 38.2807C75.4332 38.6012 76.7741 39.4242 77.7372 40.6128C78.7002 41.8014 79.2272 43.2877 79.2305 44.8175ZM38.0795 5.27042H79.5224L70.0092 33.3288C69.6148 33.4046 69.2205 33.5373 68.8262 33.67L58.8162 13.2519L48.7758 33.5373C48.3815 33.4084 47.9568 33.3288 47.5359 33.2491L38.0795 5.27042ZM56.9165 42.5235C56.4276 40.0931 55.1828 37.8794 53.3599 36.199L58.8124 25.188L64.3179 36.4379C62.6874 38.0683 61.5007 40.1538 61.0267 42.5235H56.9165ZM43.7177 38.3603C43.8467 38.3337 43.9528 38.3072 44.0855 38.2845H44.1614C44.2713 38.2541 44.3737 38.2541 44.4799 38.2276H44.586C44.6922 38.2276 44.7718 38.201 44.8742 38.201H45.9017C46.0079 38.201 46.0875 38.2276 46.1672 38.2276C46.2202 38.2276 46.243 38.2276 46.2999 38.2541C46.4022 38.2807 46.4819 38.2807 46.588 38.3072C46.6108 38.3022 46.6462 38.311 46.6942 38.3337L47.062 38.4096H47.0885C47.1947 38.4349 47.2996 38.4715 47.4032 38.5195C47.4298 38.5195 47.4563 38.5461 47.5094 38.5461C47.589 38.5726 47.6952 38.5992 47.7748 38.6485C47.8014 38.6485 47.8279 38.675 47.8507 38.675C47.9568 38.7281 48.063 38.7546 48.1692 38.8077H48.1957C48.3169 38.8548 48.4316 38.9172 48.5369 38.9935H48.5635C48.6697 39.0466 48.7758 39.1224 48.882 39.1755C48.9085 39.1755 48.9085 39.202 48.9313 39.202C49.0374 39.2551 49.1209 39.3347 49.2232 39.3878L49.2498 39.4144C49.5645 39.6495 49.8564 39.9149 50.1446 40.1765L50.1712 40.203C51.3443 41.4405 51.996 43.082 51.9912 44.7872C51.9329 46.5092 51.208 48.1412 49.9692 49.3387C48.7305 50.5363 47.0749 51.2058 45.352 51.2058C43.629 51.2058 41.9734 50.5363 40.7347 49.3387C39.4959 48.1412 38.7709 46.5092 38.7127 44.7872C38.7073 43.3103 39.1975 41.8743 40.1049 40.7091C41.0124 39.5438 42.2845 38.7168 43.7177 38.3603ZM17.7903 38.1745C21.4531 38.1745 24.4295 41.1548 24.4295 44.8137C24.4295 48.4727 21.4531 51.4529 17.7941 51.4529C14.1352 51.4529 11.1511 48.4765 11.1511 44.8175C11.1511 41.1585 14.1314 38.1745 17.7903 38.1745ZM79.075 61.0193C78.7754 62.7049 78.1076 64.3036 77.1192 65.7016C76.1309 67.0995 74.8464 68.2623 73.3572 69.1069C70.4831 70.7677 66.9531 71.2947 63.2372 71.8217C61.1477 72.0877 59.0724 72.4559 57.0189 72.9251C51.5399 74.2712 46.2733 76.9064 41.1622 79.4354C34.6253 82.6735 28.4601 85.7296 22.746 85.7296C19.8161 85.7465 16.9564 84.8331 14.5788 83.1209C8.78132 79.1169 9.06949 71.6094 9.75578 67.4993C10.389 63.6507 12.1521 60.0448 13.8394 56.5906C13.9456 56.3821 14.0252 56.1963 14.1314 55.984C14.7077 56.1963 15.3131 56.3555 15.9476 56.4617C14.9466 62.0468 17.7903 67.814 23.3262 70.6615L24.3272 71.1885L25.404 70.7942C30.0147 69.16 34.2841 66.4983 38.053 62.9417C40.1352 61.0019 41.9749 58.8171 43.5319 56.4352C44.1386 56.5375 44.7453 56.5641 45.352 56.5641C47.9597 56.5561 50.4917 55.6867 52.5543 54.0911C54.6169 52.4954 56.0945 50.263 56.7573 47.7409H61.1822C61.8394 50.2675 63.3166 52.5045 65.382 54.1013C67.4475 55.698 69.9844 56.5642 72.5951 56.5641C74.7791 56.5641 76.8038 55.9574 78.548 54.9337C79.2305 56.9053 79.4428 58.9642 79.075 61.0193Z" fill="#B2BAE5"/>
</svg>
