<svg width="90" height="90" viewBox="0 0 90 90" fill="none" xmlns="http://www.w3.org/2000/svg">
<path d="M6.76739 22.6273C-0.987373 33.7725 -0.0219826 48.2745 5.90185 60.1179C6.04247 60.402 6.19013 60.6811 6.33567 60.9603L6.6127 61.4939L6.78567 61.8012L7.09435 62.3539C7.27856 62.6778 7.467 63.001 7.65966 63.3235L7.98239 63.855C8.19614 64.1996 8.41481 64.5418 8.63841 64.8816L8.91825 65.3133C9.22692 65.7739 9.54263 66.2337 9.86888 66.6851L9.8963 66.7203L10.0566 66.9368C10.3393 67.3259 10.628 67.71 10.9229 68.0892L11.2491 68.5041C11.5116 68.8336 11.7783 69.1615 12.0493 69.4878L12.3551 69.8534C12.72 70.284 13.0918 70.7088 13.4703 71.1274L13.4935 71.1507L13.5364 71.1985C13.9083 71.6022 14.2862 72.0004 14.6698 72.3931L15.0333 72.7594C15.331 73.0585 15.6326 73.3542 15.9383 73.6468L16.3088 73.9983C16.7161 74.3827 17.1296 74.7593 17.5491 75.1282L17.5688 75.1437L17.7847 75.3279C18.1559 75.6495 18.5316 75.9666 18.9118 76.2793L19.3786 76.6512C19.689 76.9001 20.0021 77.1448 20.318 77.3853L20.82 77.7671C21.1688 78.0239 21.5201 78.2759 21.874 78.5229L22.2579 78.795L22.3634 78.8703C22.6995 79.1016 23.0433 79.3245 23.3872 79.5474L23.8301 79.8427C24.3575 80.176 24.8918 80.5057 25.4325 80.8242L25.8755 81.0739C26.2725 81.3036 26.6733 81.5283 27.0779 81.7482C27.2972 81.8663 27.5222 81.9781 27.743 82.0913C28.0292 82.2411 28.3133 82.3929 28.6043 82.5385L28.8033 82.6348L29.1556 82.805C29.6061 83.0206 30.0608 83.2308 30.5197 83.4357L30.8079 83.565C31.3343 83.7953 31.8647 84.0158 32.3991 84.2267L32.7865 84.3792C33.2815 84.5698 33.7836 84.7582 34.2877 84.9354L34.4761 85.0008C35.0295 85.1942 35.5878 85.3735 36.1503 85.5485L36.5546 85.6695C37.1269 85.8418 37.6929 86.0478 38.2829 86.1567C75.7868 92.996 86.6811 63.6195 86.6811 63.6195C77.5313 75.5396 61.2905 78.6839 45.9026 75.1831C45.3197 75.0516 44.7544 74.8695 44.1856 74.7014L43.7574 74.5714C43.2031 74.4014 42.6518 74.2221 42.1036 74.0335L41.8765 73.9512C41.3877 73.7785 40.9016 73.5982 40.4183 73.4105L40.009 73.2495C39.4793 73.0409 38.9546 72.8227 38.4347 72.5949L38.1204 72.4557C37.6754 72.2546 37.2326 72.0486 36.7922 71.8376L36.4083 71.6534C36.0631 71.4853 35.7214 71.3068 35.3811 71.131C35.1533 71.0107 34.9212 70.8975 34.6955 70.7724C34.2812 70.5492 33.8708 70.319 33.4643 70.0819L33.0488 69.8499C32.5091 69.5313 31.9746 69.2038 31.4457 68.8676L31.0133 68.5793C30.6287 68.3327 30.2483 68.0798 29.8721 67.8207L29.505 67.5626C29.1428 67.3065 28.7832 67.0466 28.4265 66.7828L27.949 66.4214C27.6212 66.1722 27.2968 65.9186 26.9759 65.6607L26.5421 65.3126C26.1334 64.9776 25.7293 64.637 25.3299 64.291L25.197 64.1792C24.7667 63.7994 24.342 63.4133 23.9229 63.0211L23.5636 62.6759C23.2536 62.3806 22.9484 62.0832 22.6482 61.778L22.2896 61.4201C21.9086 61.0302 21.534 60.634 21.166 60.2318L21.1104 60.1728C20.7226 59.7476 20.3426 59.3153 19.9707 58.8762L19.6725 58.5218C19.3946 58.1875 19.1211 57.8495 18.852 57.5079L18.5518 57.1339C18.23 56.718 17.9143 56.2974 17.6047 55.8725C9.06169 44.2189 5.99185 28.1468 12.8199 14.9478M30.8403 13.2364C25.2315 21.3068 25.5366 32.111 29.9115 40.6463C30.6444 42.0807 31.4731 43.464 32.3921 44.787C33.2323 45.9914 34.164 47.4244 35.2791 48.3919C35.6869 48.8386 36.1065 49.2742 36.5377 49.6983L36.8696 50.0253C37.2884 50.4335 37.717 50.8315 38.1549 51.2192L38.2069 51.2642L38.2196 51.2768C38.7095 51.7035 39.21 52.1178 39.7208 52.5193L40.0618 52.785C40.5753 53.1806 41.0988 53.563 41.6318 53.9318L41.6776 53.9663C41.9138 54.1294 42.1543 54.2813 42.394 54.4388L42.7336 54.6631C43.1161 54.9092 43.504 55.1471 43.8973 55.3768L44.0625 55.4724C44.4029 55.6683 44.7458 55.86 45.0912 56.0475L45.4576 56.2381C45.6959 56.3625 45.9343 56.4898 46.1768 56.6107L46.2858 56.66C46.7801 56.9032 47.2786 57.1381 47.7877 57.3596L48.1196 57.496C48.5267 57.6689 48.938 57.8377 49.35 57.9952L49.8774 58.1886C50.2522 58.3278 50.6283 58.4543 51.0073 58.5816L51.5185 58.7454C52.0578 58.9128 52.5908 59.1244 53.1526 59.2179C82.1093 64.0153 88.7947 41.72 88.7947 41.72C82.7689 50.3986 71.0984 54.54 58.6454 51.3071C58.0948 51.1624 57.5479 51.0044 57.005 50.8332L56.5121 50.6735C56.1273 50.5492 55.745 50.4174 55.3653 50.2784L54.8478 50.0857C54.4334 49.9268 54.0218 49.7608 53.6131 49.5879L53.2805 49.4473C52.7714 49.2256 52.2678 48.9914 51.7702 48.7449C51.515 48.6204 51.264 48.4889 51.0122 48.3596L50.5749 48.1346C50.2523 47.9597 49.9328 47.7792 49.6165 47.5932L49.3873 47.4631C48.9956 47.2346 48.6086 46.9984 48.2265 46.7543L47.8763 46.5209C47.6241 46.3578 47.3735 46.1921 47.1247 46.0238C46.5939 45.6547 46.0721 45.273 45.5595 44.8791L45.2072 44.6014C39.7566 40.2982 35.4352 34.4159 33.3814 27.7468C31.2284 20.8308 31.6925 13.0669 35.4226 6.7655M51.0868 6.22058C47.7807 11.0862 47.4558 17.1289 49.7501 22.5021C52.1696 28.2066 57.1266 32.6806 62.9126 34.8033C63.151 34.8912 63.3901 34.97 63.6312 35.0522L63.9483 35.1528C64.2893 35.2596 64.6276 35.3841 64.9798 35.4509C80.9689 38.5404 85.3057 27.2461 86.4596 25.5832C82.6613 31.0528 76.2769 32.3656 68.4434 30.4643C67.8247 30.3146 67.1447 30.091 66.5485 29.8793C65.7824 29.6075 65.0311 29.2956 64.2978 28.9449C62.9056 28.2757 61.5837 27.4692 60.3518 26.5374C53.3424 21.2182 48.9879 11.0728 53.5618 2.81042" fill="#B2BAE5"/>
</svg>
