<svg width="108" height="108" viewBox="0 0 108 108" fill="none" xmlns="http://www.w3.org/2000/svg">
<path d="M73.8248 31.4349C73.2982 31.4349 72.9473 31.5058 72.5929 31.5936V31.6476H72.6469C72.8932 32.1032 73.2983 32.4576 73.6121 32.8794C73.8585 33.3553 74.0677 33.8447 74.2972 34.3206L74.3681 34.2497C74.79 33.9493 75.0026 33.4768 75.0026 32.7546C74.8271 32.5419 74.79 32.3158 74.6348 32.1201C74.4593 31.8197 74.0711 31.6644 73.8248 31.4349ZM25.9605 90.8113H21.7957C21.6705 84.1822 21.2663 77.5614 20.5841 70.9663H20.5504L14.2054 90.8113H11.0227L4.72837 70.9663H4.67438C4.18526 77.5712 3.89263 84.1891 3.79688 90.8113H0C0.205702 82.4891 0.821825 74.1822 1.84613 65.9207H7.01325L13.0241 84.2031H13.0579L19.1227 65.9207H24.0435C25.137 74.9927 25.7816 83.2896 25.9774 90.8113H25.9605ZM44.0302 72.4446C42.3427 81.6549 40.0916 88.3543 37.3342 92.5191C35.1562 95.7366 32.7769 97.3476 30.1961 97.3521C29.5144 97.3521 28.665 97.1406 27.648 96.7176V94.5036C28.1576 94.5744 28.7381 94.6251 29.3895 94.6251C30.6011 94.6251 31.5697 94.2741 32.3089 93.6227C33.1864 92.8127 33.6262 91.9048 33.6285 90.8991C33.6285 90.1971 33.2944 88.7897 32.5924 86.6466L28.0395 72.4446H32.1367L35.4071 83.0623C36.1462 85.4889 36.4635 87.1596 36.3217 88.1248C38.1307 83.3424 39.3795 78.1044 40.0849 72.4446H44.0302ZM99.5051 90.8113H87.6589V65.9207H91.6481V87.7536H99.5051V90.8113ZM84.564 91.4121L79.9942 89.1609C80.3992 88.8302 80.7806 88.4556 81.1384 88.0371C83.0891 85.7691 84.0577 82.3772 84.0577 77.9121C84.0577 69.6703 80.8234 65.5517 74.3546 65.5562C71.1866 65.5517 68.7139 66.5946 66.9364 68.6848C65.0025 70.9697 64.017 74.3447 64.017 78.7929C64.017 83.1703 64.8776 86.3698 66.6023 88.4252C68.1851 90.2544 70.5578 91.1859 73.7404 91.1859C74.9216 91.1882 76.0061 91.0419 76.9939 90.7472L82.9541 94.2268L84.5876 91.4154L84.564 91.4121ZM69.7477 85.8197C68.7285 84.2031 68.2357 81.6009 68.2357 78.0133C68.2335 71.7426 70.1381 68.6083 73.9496 68.6106C75.9375 68.6106 77.4124 69.3666 78.3439 70.8617C79.3463 72.4952 79.8559 75.0636 79.8559 78.6141C79.8559 84.9253 77.9389 88.1079 74.142 88.1079C72.1373 88.1079 70.6793 87.3519 69.7309 85.8568L69.7477 85.8197ZM62.2924 83.9229C62.2924 86.0323 61.5195 87.7738 59.9535 89.1069C58.4077 90.4603 56.349 91.1454 53.73 91.1454C51.2865 91.1454 48.9476 90.3726 46.6459 88.8234L47.7191 86.6803C49.6867 87.6658 51.462 88.1586 53.082 88.1586C54.5805 88.1563 55.7528 87.8278 56.5988 87.1731C57.4425 86.5048 57.9521 85.5733 57.9521 84.3954C57.9521 82.9172 56.916 81.6516 55.0327 80.5986C53.2912 79.6333 49.7948 77.6454 49.7948 77.6454C47.8946 76.2583 46.9631 74.7801 46.9631 72.3366C46.9631 70.3183 47.6662 68.6949 49.0725 67.4664C50.4967 66.2008 52.3058 65.5866 54.5569 65.5866C56.7965 65.5671 58.992 66.2093 60.8681 67.4327L59.9029 69.5758C58.3955 68.9097 56.7684 68.5572 55.1205 68.5397C53.838 68.5442 52.8536 68.8547 52.1674 69.4712C51.138 70.3959 51.0604 70.8583 51.0604 71.8269C51.0604 73.3052 52.1167 74.5708 54.0472 75.6576C55.8225 76.6228 59.3899 78.6647 59.3899 78.6647C61.3406 80.0349 62.3092 81.5132 62.3092 83.9196L62.2924 83.9229ZM104.5 57.5743C102.09 57.5203 100.227 57.7667 98.6648 58.4349C98.226 58.6104 97.5038 58.6104 97.4329 59.1741C97.6793 59.4204 97.713 59.8086 97.9256 60.1393C98.2935 60.7367 98.9111 61.5467 99.4916 61.9686C100.126 62.4613 100.757 62.9541 101.409 63.3759C102.587 64.0982 103.906 64.5201 105.064 65.2389C105.715 65.6608 106.383 66.2042 107.031 66.6463C107.366 66.8758 107.575 67.2808 107.997 67.4192V67.3314C107.784 67.0682 107.733 66.6801 107.521 66.3662C107.22 66.0658 106.923 65.8026 106.623 65.5056C105.743 64.3366 104.688 63.3108 103.494 62.4647C102.529 61.8133 100.42 60.8987 100.032 59.7917L99.9776 59.7208C100.629 59.6668 101.402 59.4204 102.033 59.2449C103.052 58.9817 104.001 59.0323 105.057 58.7691C105.542 58.6437 106.022 58.5031 106.498 58.3472V58.0839C105.955 57.5406 105.55 56.8014 104.986 56.2918C103.43 54.9366 101.773 53.7022 100.028 52.5996C99.0799 51.9853 97.8851 51.5972 96.8828 51.0876C96.5318 50.9121 95.9175 50.8243 95.7218 50.5239C95.1784 49.8557 94.8611 48.9951 94.473 48.2019C93.5907 46.4858 92.7701 44.7387 92.0126 42.9639C91.4693 41.7861 91.152 40.6251 90.4838 39.5349C87.3889 34.4184 84.0139 31.3269 78.8468 28.2861C77.7398 27.6516 76.4033 27.3883 74.9959 27.0542C74.2399 27.0204 73.5008 26.9664 72.7448 26.9327C72.252 26.7201 71.7795 26.1598 71.3576 25.8763C69.6364 24.7862 65.205 22.4473 63.9563 25.5422C63.1463 27.5098 65.151 29.4268 65.8564 30.4123C66.366 31.1143 67.0174 31.8906 67.3852 32.6634C67.5979 33.1899 67.6485 33.7367 67.8611 34.2801C68.337 35.5997 68.7926 37.0746 69.4271 38.3064C69.7613 38.9409 70.1123 39.6058 70.5341 40.1694C70.7805 40.5036 71.2024 40.6453 71.2901 41.1887C70.8683 41.8029 70.8345 42.7007 70.605 43.4398C69.5149 46.8486 69.9368 51.0504 71.4656 53.5648C71.9584 54.3208 73.0991 55.9746 74.6314 55.3401C75.9848 54.7967 75.6878 53.0889 76.0725 51.5769C76.1603 51.2091 76.1063 50.9796 76.2851 50.7332V50.8041C76.7239 51.6478 77.1458 52.4578 77.5339 53.3016C78.4485 54.7798 80.082 56.3087 81.4354 57.3279C82.1576 57.8713 82.7179 58.8062 83.6156 59.1369V59.0492H83.5447C83.3524 58.7859 83.106 58.6611 82.8596 58.4518C82.2897 57.8872 81.7607 57.2827 81.2767 56.6428C80.028 54.9553 78.9041 53.0923 77.9186 51.1753C77.4443 50.2279 77.0108 49.2607 76.6192 48.2762C76.4437 47.9252 76.4438 47.3784 76.1434 47.2029C75.6878 47.8543 75.0195 48.4146 74.7023 49.2414C74.1217 50.5239 74.0677 52.1237 73.8416 53.7774C73.737 53.8112 73.7876 53.7774 73.737 53.8483C72.7718 53.6019 72.4376 52.6164 72.0833 51.7727C71.1686 49.6296 71.0269 46.2006 71.8031 43.7402C72.0157 43.1057 72.9101 41.1212 72.5591 40.5238C72.3668 39.9433 71.7694 39.6092 71.4521 39.1536C71.0471 38.5899 70.6421 37.8711 70.362 37.2366C69.6398 35.5491 69.2888 33.6861 68.499 31.9986C68.148 31.2257 67.5135 30.4157 67.0039 29.6968C66.4234 28.8868 65.7923 28.3097 65.3501 27.3579C65.1915 27.0238 64.9822 26.4804 65.2286 26.1261C65.2826 25.8797 65.4041 25.7919 65.6505 25.7211C66.0386 25.3869 67.1625 25.8088 67.5506 26.0012C68.6576 26.4399 69.5891 26.8618 70.5206 27.4963C70.9425 27.7967 71.3981 28.3569 71.9449 28.5156H72.5794C73.5446 28.7282 74.6179 28.5696 75.5156 28.8497C77.1154 29.3593 78.5565 30.0984 79.8559 30.9051C83.8299 33.4555 87.0614 37.0084 89.2249 41.2056C89.5928 41.8907 89.7514 42.5252 90.0855 43.2441C90.6998 44.7392 91.4929 46.2309 92.124 47.6552C92.7551 49.0794 93.3559 50.5206 94.2671 51.6984C94.7227 52.3329 96.5182 52.6637 97.3418 52.9809C97.9391 53.2611 98.8706 53.5074 99.3971 53.8247C100.433 54.4592 101.452 55.1781 102.421 55.8801C102.914 56.2142 104.409 56.9702 104.497 57.5676L104.5 57.5743Z" fill="#B2BAE5"/>
</svg>
