<svg width="117" height="94" viewBox="0 0 117 94" fill="none" xmlns="http://www.w3.org/2000/svg">
<path d="M57.8236 82.9844C57.4397 82.9844 57.0558 82.8742 56.7084 82.6906L53.1984 80.5977C52.6683 80.3039 52.9242 80.1938 53.107 80.1387C53.8017 79.9 53.948 79.8449 54.6975 79.4043C54.7706 79.3676 54.8803 79.3859 54.9534 79.4227L57.6591 81.0383C57.7505 81.0934 57.8967 81.0934 57.9881 81.0383L68.5547 74.9063C68.6461 74.8512 68.7192 74.741 68.7192 74.6125V62.3668C68.7192 62.2383 68.6644 62.1281 68.5547 62.0731L57.9881 55.9594C57.8967 55.9043 57.7687 55.9043 57.6591 55.9594L47.0925 62.0731C46.9828 62.1281 46.928 62.2567 46.928 62.3668V74.6125C46.928 74.7227 47.0011 74.8328 47.0925 74.8879L49.9809 76.5586C51.5531 77.3481 52.522 76.4117 52.522 75.4938V63.3949C52.522 63.2297 52.65 63.0828 52.8328 63.0828H54.1673C54.3319 63.0828 54.4781 63.2113 54.4781 63.3949V75.4938C54.4781 77.6051 53.3447 78.7985 51.352 78.7985C50.7487 78.7985 50.2552 78.7985 48.9206 78.1375L46.1419 76.5402C45.4655 76.1363 45.0267 75.402 45.0267 74.6125V62.3668C45.0267 61.5774 45.4472 60.8246 46.1419 60.4391L56.7084 54.307C57.3848 53.9215 58.2623 53.9215 58.9205 54.307L69.487 60.4391C70.1634 60.843 70.6022 61.5774 70.6022 62.3668V74.6125C70.6022 75.402 70.1817 76.1547 69.487 76.5402L58.9205 82.6723C58.6097 82.8742 58.2258 82.9844 57.8236 82.9844ZM66.3609 70.9039C66.3609 68.609 64.8253 68.0031 61.5712 67.5625C58.2806 67.1219 57.9516 66.9016 57.9516 66.1305C57.9516 65.4879 58.2258 64.6434 60.6572 64.6434C62.8327 64.6434 63.637 65.1207 63.9661 66.5895C64.0027 66.7363 64.1123 66.8281 64.2586 66.8281H65.6297C65.7211 66.8281 65.7942 66.7914 65.8491 66.7363C65.9039 66.6629 65.9405 66.5895 65.9222 66.4977C65.7028 63.9641 64.0392 62.7891 60.6572 62.7891C57.6408 62.7891 55.8492 64.0742 55.8492 66.2039C55.8492 68.5356 57.6408 69.1598 60.5292 69.4535C63.9844 69.8024 64.2586 70.2981 64.2586 70.9774C64.2586 72.1707 63.308 72.6664 61.0777 72.6664C58.2806 72.6664 57.6591 71.9688 57.458 70.5735C57.4397 70.4266 57.3117 70.3164 57.1472 70.3164H55.7761C55.6116 70.3164 55.4653 70.4449 55.4653 70.6285C55.4653 72.4094 56.4342 74.5391 61.0594 74.5391C64.4414 74.5391 66.3609 73.2172 66.3609 70.9039ZM76.3242 61.7059C76.3242 62.8258 75.4102 63.7438 74.295 63.7438C73.1798 63.7438 72.2658 62.8258 72.2658 61.7059C72.2658 60.5492 73.2164 59.668 74.295 59.668C75.3919 59.6496 76.3242 60.5492 76.3242 61.7059ZM75.9952 61.7059C75.9952 60.7512 75.2273 59.9985 74.2767 59.9985C73.3444 59.9985 72.5766 60.7512 72.5766 61.7059C72.5766 62.6606 73.3444 63.4317 74.2767 63.4317C75.2273 63.4133 75.9952 62.6422 75.9952 61.7059ZM75.1725 62.8442H74.6972C74.6789 62.734 74.6058 62.1465 74.6058 62.1281C74.5692 61.9996 74.5327 61.9262 74.3681 61.9262H73.9659V62.8442H73.5272V60.5492H74.3133C74.5875 60.5492 75.1177 60.5492 75.1177 61.1551C75.1177 61.5774 74.8434 61.6692 74.6789 61.7242C74.9897 61.7426 75.008 61.9445 75.0628 62.2383C75.0811 62.4219 75.1177 62.734 75.1725 62.8442ZM74.6606 61.2285C74.6606 60.9164 74.4413 60.9164 74.3316 60.9164H73.9659V61.559H74.3133C74.6058 61.559 74.6606 61.357 74.6606 61.2285ZM25.1002 35.0664C25.1002 34.5707 24.8442 34.1301 24.4237 33.8914L13.2173 27.4106C13.0345 27.3004 12.8152 27.2453 12.5958 27.227H12.4861C12.2667 27.227 12.0656 27.3004 11.8645 27.4106L0.676406 33.8914C0.255938 34.1301 0 34.5891 0 35.0664L0.0182812 52.5078C0.0182812 52.7465 0.14625 52.9668 0.347344 53.0953C0.548437 53.2238 0.804375 53.2238 1.02375 53.0953L7.67812 49.2582C8.09859 49.0012 8.35453 48.5606 8.35453 48.0832V39.9317C8.35453 39.4543 8.61047 38.9953 9.03094 38.7567L11.8645 37.1227C12.0839 36.9942 12.3033 36.9391 12.5409 36.9391C12.7786 36.9391 13.0163 36.9942 13.2173 37.1227L16.0509 38.7567C16.4714 38.9953 16.7273 39.4543 16.7273 39.9317V48.0832C16.7273 48.5606 16.9833 49.0195 17.4037 49.2582L24.0581 53.0953C24.2592 53.2238 24.5334 53.2238 24.7345 53.0953C24.9356 52.9852 25.0636 52.7465 25.0636 52.5078L25.1002 35.0664ZM86.3789 16.0278V48.4137C86.3789 48.891 86.123 49.35 85.7025 49.5887L74.4961 56.0879C74.0756 56.3266 73.5638 56.3266 73.1433 56.0879L61.9369 49.5887C61.5164 49.35 61.2605 48.891 61.2605 48.4137V35.4153C61.2605 34.9379 61.5164 34.4789 61.9369 34.2403L73.1433 27.741C73.5638 27.5024 74.0756 27.5024 74.4961 27.741L77.2931 29.3567C77.6039 29.5403 78.0061 29.3016 78.0061 28.9528V11.6949C78.0061 11.1809 78.5545 10.8504 79.0116 11.1074L85.6842 14.8528C86.1047 15.0731 86.3789 15.5321 86.3789 16.0278ZM77.9695 39.693C77.9695 39.5645 77.8964 39.4543 77.805 39.3992L73.9659 37.1594C73.8562 37.1043 73.7283 37.1043 73.6186 37.1594L69.7795 39.3992C69.6698 39.4543 69.615 39.5645 69.615 39.693V44.1543C69.615 44.2828 69.6881 44.393 69.7795 44.4481L73.6186 46.6695C73.7283 46.7246 73.8562 46.7246 73.9477 46.6695L77.7867 44.4481C77.8964 44.393 77.9512 44.2828 77.9512 44.1543V39.693H77.9695ZM116.324 39.5645C116.744 39.3258 117 38.8668 117 38.3895V35.25C117 34.7727 116.744 34.3137 116.324 34.075L105.19 27.5758C104.77 27.3371 104.258 27.3371 103.838 27.5758L92.6311 34.075C92.2106 34.3137 91.9547 34.7727 91.9547 35.25V48.2485C91.9547 48.7442 92.2106 49.1848 92.6311 49.4235L103.764 55.7942C104.167 56.0328 104.678 56.0328 105.099 55.7942L111.826 52.0305C112.283 51.7735 112.283 51.1125 111.826 50.8555L100.547 44.3563C100.327 44.2278 100.2 44.0074 100.2 43.7688V39.693C100.2 39.4543 100.327 39.234 100.547 39.1055L104.057 37.0676C104.258 36.9391 104.532 36.9391 104.733 37.0676L108.243 39.1055C108.444 39.234 108.591 39.4543 108.591 39.693V42.8875C108.591 43.4016 109.157 43.732 109.614 43.475L116.324 39.5645ZM102.192 40.207C102.119 40.2621 102.064 40.3356 102.064 40.4274V42.9242C102.064 43.016 102.119 43.1078 102.192 43.1445L104.349 44.393C104.422 44.4481 104.532 44.4481 104.605 44.393L106.762 43.1445C106.836 43.0895 106.89 43.016 106.89 42.9242V40.4274C106.89 40.3356 106.836 40.2438 106.762 40.207L104.605 38.9586C104.532 38.9035 104.422 38.9035 104.349 38.9586L102.192 40.207ZM55.7212 48.1934V35.2684C55.7212 34.791 55.4287 34.332 55.0083 34.0934L43.8384 27.6309C43.4545 27.4106 42.9244 27.3738 42.4856 27.6309L31.3158 34.0934C30.8953 34.332 30.6028 34.7727 30.6028 35.2684V48.1934C30.6028 48.7074 30.9502 49.1481 31.3341 49.3684L42.5222 55.8309C42.9609 56.0879 43.4728 56.0695 43.875 55.8309L55.0266 49.3684C55.3556 49.1848 55.5933 48.8727 55.6847 48.5055C55.703 48.4137 55.7212 48.3035 55.7212 48.1934ZM42.1383 25.2625L41.992 25.3543H42.1931L42.1383 25.2625ZM56.0686 49.1664L55.9955 49.0379V49.2031L56.0686 49.1664Z" fill="#B2BAE5"/>
</svg>
