<svg width="108" height="108" viewBox="0 0 108 108" fill="none" xmlns="http://www.w3.org/2000/svg">
<path d="M53.4863 10.3343C49.924 10.3512 46.5237 10.6541 43.5301 11.1839C34.7129 12.7415 33.1131 16.0018 33.1131 22.0152V29.9557H53.9479V32.6025H25.2933C19.2385 32.6025 13.9364 36.2416 12.2776 43.1671C10.364 51.1026 10.2796 56.0554 12.2776 64.3419C13.7584 70.5105 17.2954 74.9048 23.351 74.9048H30.5152V65.3856C30.5152 58.5082 36.4645 52.4425 43.5309 52.4425H64.342C70.1352 52.4425 74.759 47.6719 74.759 41.8551V22.016C74.759 16.3688 69.9951 12.1273 64.342 11.1848C60.7611 10.5891 57.0478 10.3183 53.4863 10.3343ZM42.2189 16.7206C44.3704 16.7206 46.1288 18.5069 46.1288 20.704C46.1288 22.8918 44.3713 24.6612 42.2189 24.6612C40.0589 24.6612 38.3098 22.8918 38.3098 20.704C38.309 18.5069 40.0589 16.7206 42.2189 16.7206Z" fill="url(#paint0_linear_1_320)"/>
<path d="M77.3565 32.6025V41.8551C77.3565 49.027 71.2748 55.064 64.3408 55.064H43.5297C37.8294 55.064 33.1128 59.9434 33.1128 65.6522V85.493C33.1128 91.1385 38.0217 94.4604 43.5297 96.0795C50.1245 98.0176 56.4492 98.3686 64.3408 96.0795C69.5856 94.5599 74.7578 91.5039 74.7578 85.493V77.5516H53.9475V74.9039H85.1764C91.2311 74.9039 93.489 70.681 95.595 64.341C97.7702 57.8146 97.6765 51.538 95.595 43.1663C94.0982 37.1377 91.2404 32.6017 85.1764 32.6017L77.3565 32.6025ZM65.6512 82.8453C67.812 82.8453 69.5611 84.6147 69.5611 86.8042C69.5611 88.9996 67.8112 90.7858 65.6512 90.7858C63.4996 90.7858 61.7421 88.9996 61.7421 86.8042C61.7421 84.6147 63.4996 82.8453 65.6512 82.8453Z" fill="url(#paint1_linear_1_320)"/>
<path opacity="0.444" d="M82.1046 100.91C82.1046 103.899 69.6036 106.323 54.1841 106.323C38.7637 106.323 26.2627 103.899 26.2627 100.91C26.2627 97.9205 38.7629 95.4956 54.1841 95.4956C69.6036 95.4956 82.1046 97.9189 82.1046 100.91Z" fill="url(#paint2_radial_1_320)"/>
<defs>
<linearGradient id="paint0_linear_1_320" x1="8.72191" y1="12.8171" x2="56.7767" y2="53.798" gradientUnits="userSpaceOnUse">
<stop stop-color="#B2BAE5"/>
<stop offset="1" stop-color="#B2BAE5"/>
</linearGradient>
<linearGradient id="paint1_linear_1_320" x1="74.8564" y1="79.2723" x2="57.6232" y2="55.1055" gradientUnits="userSpaceOnUse">
<stop stop-color="#B2BAE5"/>
<stop offset="1" stop-color="#B2BAE5"/>
</linearGradient>
<radialGradient id="paint2_radial_1_320" cx="0" cy="0" r="1" gradientUnits="userSpaceOnUse" gradientTransform="translate(54.0712 100.755) rotate(-90) scale(5.41546 23.8054)">
<stop stop-color="#B2BAE5" stop-opacity="0.498"/>
<stop offset="1" stop-color="#B2BAE5" stop-opacity="0"/>
</radialGradient>
</defs>
</svg>
