<svg width="44" height="44" viewBox="0 0 44 44" fill="none" xmlns="http://www.w3.org/2000/svg">
<path d="M22.0954 27.1865L24.6877 29.7789L32.4684 22L24.6896 14.2212L22.0972 16.8154L25.4467 20.1667H11.6289V23.8334H25.4467L22.0954 27.1865Z" fill="black"/>
<path fill-rule="evenodd" clip-rule="evenodd" d="M36.2598 36.2598C44.1358 28.3838 44.1358 15.6165 36.2598 7.7405C28.3838 -0.135504 15.6165 -0.135504 7.7405 7.7405C-0.135504 15.6165 -0.135504 28.3838 7.7405 36.2598C15.6165 44.1358 28.3838 44.1358 36.2598 36.2598ZM33.6675 33.6675C35.1997 32.1353 36.4151 30.3164 37.2443 28.3145C38.0735 26.3126 38.5003 24.167 38.5003 22.0002C38.5003 19.8333 38.0735 17.6877 37.2443 15.6858C36.4151 13.684 35.1997 11.865 33.6675 10.3328C32.1353 8.80065 30.3164 7.58526 28.3145 6.75606C26.3126 5.92685 24.167 5.50006 22.0002 5.50006C19.8333 5.50006 17.6877 5.92685 15.6858 6.75606C13.684 7.58526 11.865 8.80065 10.3328 10.3328C7.23846 13.4272 5.50006 17.6241 5.50006 22.0002C5.50006 26.3763 7.23846 30.5731 10.3328 33.6675C13.4272 36.7619 17.6241 38.5003 22.0002 38.5003C26.3763 38.5003 30.5731 36.7619 33.6675 33.6675Z" fill="black"/>
</svg>
