<svg width="12" height="12" viewBox="0 0 12 12" fill="none" xmlns="http://www.w3.org/2000/svg">
<path d="M6.02589 7.41442L6.73289 8.12142L8.85489 5.99992L6.73339 3.87842L6.02639 4.58592L6.93989 5.49992H3.17139V6.49992H6.93989L6.02589 7.41442Z" fill="black"/>
<path fill-rule="evenodd" clip-rule="evenodd" d="M9.889 9.889C12.037 7.741 12.037 4.259 9.889 2.111C7.741 -0.0369999 4.259 -0.0369999 2.111 2.111C-0.0369999 4.259 -0.0369999 7.741 2.111 9.889C4.259 12.037 7.741 12.037 9.889 9.889ZM9.182 9.182C9.59987 8.76413 9.93134 8.26805 10.1575 7.72209C10.3836 7.17612 10.5 6.59095 10.5 6C10.5 5.40905 10.3836 4.82388 10.1575 4.27791C9.93134 3.73195 9.59987 3.23587 9.182 2.818C8.76413 2.40013 8.26805 2.06866 7.72209 1.84252C7.17612 1.61637 6.59095 1.49997 6 1.49997C5.40905 1.49997 4.82388 1.61637 4.27791 1.84252C3.73195 2.06866 3.23587 2.40013 2.818 2.818C1.97408 3.66192 1.49997 4.80652 1.49997 6C1.49997 7.19348 1.97408 8.33808 2.818 9.182C3.66192 10.0259 4.80652 10.5 6 10.5C7.19348 10.5 8.33808 10.0259 9.182 9.182Z" fill="black"/>
</svg>
