<svg width="87" height="87" viewBox="0 0 87 87" fill="none" xmlns="http://www.w3.org/2000/svg">
<path d="M78.5039 0H8.49609C3.80383 0 0 3.80383 0 8.49609V78.5039C0 83.1962 3.80383 87 8.49609 87H78.5039C83.1962 87 87 83.1962 87 78.5039V8.49609C87 3.80383 83.1962 0 78.5039 0Z" fill="url(#paint0_linear_1_333)"/>
<path d="M71.6117 11.3101H53.2329C50.9806 11.3101 49.1548 13.1359 49.1548 15.3882V45.2944C49.1548 47.5467 50.9806 49.3726 53.2329 49.3726H71.6117C73.8639 49.3726 75.6898 47.5467 75.6898 45.2944V15.3882C75.6898 13.1359 73.8639 11.3101 71.6117 11.3101Z" fill="white"/>
<path d="M33.7669 11.3101H15.3882C13.1359 11.3101 11.3101 13.1359 11.3101 15.3882V67.0444C11.3101 69.2967 13.1359 71.1226 15.3882 71.1226H33.7669C36.0192 71.1226 37.8451 69.2967 37.8451 67.0444V15.3882C37.8451 13.1359 36.0192 11.3101 33.7669 11.3101Z" fill="white"/>
<defs>
<linearGradient id="paint0_linear_1_333" x1="4350" y1="0" x2="4350" y2="8700" gradientUnits="userSpaceOnUse">
<stop stop-color="#B2BAE5"/>
<stop offset="1" stop-color="#0079BF"/>
</linearGradient>
</defs>
</svg>
