<svg width="23" height="23" viewBox="0 0 23 23" fill="none" xmlns="http://www.w3.org/2000/svg">
<path d="M0.486841 11.3624C0.486306 13.2949 0.991237 15.1818 1.95135 16.8449L0.39502 22.5273L6.21028 21.0026C7.81871 21.8782 9.62082 22.337 11.4521 22.3371H11.4569C17.5025 22.3371 22.4237 17.4177 22.4263 11.3711C22.4274 8.44109 21.2874 5.6859 19.2162 3.61305C17.1453 1.54038 14.3911 0.39831 11.4565 0.396973C5.41027 0.396973 0.489427 5.31612 0.48693 11.3624" fill="url(#paint0_linear_32_211)"/>
<path d="M0.0953876 11.3588C0.0947636 13.3608 0.617791 15.3151 1.61214 17.0378L0 22.924L6.02377 21.3445C7.68352 22.2495 9.55222 22.7266 11.4537 22.7273H11.4586C17.7211 22.7273 22.819 17.6309 22.8217 11.3679C22.8228 8.3326 21.6418 5.47837 19.4965 3.33126C17.351 1.18441 14.4983 0.00124806 11.4586 0C5.19515 0 0.0978837 5.09566 0.0953876 11.3588ZM3.68276 16.7411L3.45784 16.3841C2.51235 14.8807 2.0133 13.1434 2.01402 11.3595C2.01598 6.15375 6.25261 1.91845 11.4622 1.91845C13.9851 1.91952 16.356 2.90299 18.1393 4.68736C19.9225 6.47191 20.9038 8.84412 20.9032 11.3672C20.9008 16.5729 16.6641 20.8088 11.4586 20.8088H11.4549C9.75993 20.8079 8.0976 20.3527 6.64789 19.4925L6.30289 19.2879L2.72826 20.2251L3.68276 16.7411Z" fill="url(#paint1_linear_32_211)"/>
<path d="M8.61841 6.60998C8.4057 6.13723 8.18185 6.12769 7.97958 6.1194C7.81394 6.11227 7.62459 6.1128 7.43542 6.1128C7.24607 6.1128 6.93843 6.18403 6.67838 6.46797C6.41807 6.75217 5.68457 7.43896 5.68457 8.83581C5.68457 10.2327 6.70201 11.5827 6.84384 11.7723C6.98585 11.9616 8.80802 14.9198 11.6939 16.0579C14.0923 17.0037 14.5804 16.8156 15.1009 16.7681C15.6216 16.7209 16.7808 16.0815 17.0173 15.4185C17.254 14.7556 17.254 14.1874 17.1831 14.0687C17.1121 13.9504 16.9227 13.8793 16.6388 13.7374C16.3549 13.5955 14.9589 12.9085 14.6987 12.8137C14.4384 12.7191 14.2491 12.6718 14.0598 12.9561C13.8704 13.24 13.3267 13.8793 13.161 14.0687C12.9955 14.2585 12.8297 14.2821 12.5459 14.1401C12.2618 13.9976 11.3474 13.6982 10.2626 12.731C9.4185 11.9784 8.84868 11.0491 8.68304 10.7648C8.5174 10.4809 8.6653 10.3271 8.80767 10.1856C8.93524 10.0584 9.09169 9.85405 9.23379 9.68832C9.37536 9.52251 9.42261 9.40421 9.51728 9.21486C9.61204 9.02533 9.56462 8.85952 9.49374 8.71751C9.42261 8.5755 8.87087 7.17134 8.61841 6.60998Z" fill="white"/>
<defs>
<linearGradient id="paint0_linear_32_211" x1="1101.96" y1="2213.43" x2="1101.96" y2="0.396973" gradientUnits="userSpaceOnUse">
<stop stop-color="#1FAF38"/>
<stop offset="1" stop-color="#60D669"/>
</linearGradient>
<linearGradient id="paint1_linear_32_211" x1="1141.09" y1="2292.4" x2="1141.09" y2="0" gradientUnits="userSpaceOnUse">
<stop stop-color="#F9F9F9"/>
<stop offset="1" stop-color="white"/>
</linearGradient>
</defs>
</svg>
